/* XPM */
static char * accessories_calculator_xpm[] = {
"48 48 11 1",
" 	c None",
".	c #ADADAD",
"+	c #BDBDBD",
"@	c #737373",
"#	c #424242",
"$	c #212121",
"%	c #636363",
"&	c #FFFF00",
"*	c #FF0000",
"=	c #008000",
"-	c #FFFFFF",
"         ..........................             ",
"        ..+++++++++++++++++++++++++.            ",
"       ..+@@@@@@@@@@@@@@@@@@@@@@@@@@            ",
"       .+@@#######################@@$%          ",
"       .+@@#@@%@@@%%@@%%@@@%%@@%@.@@$%%         ",
"       .+@@#%@@%@@%@@%@@%##%@@%@@.@@$%%         ",
"       .+@@#@%%@%%#%%@##@%%@%%#%%.@@$%%@        ",
"       .+@@#@%%@%%#%%@##@%%@%%#%%.@@$%%@        ",
"       .+@@#%@@%@@%@@%@@%##%@@%%@.@@$%%@        ",
"       .+@@#.....................@@@$%%@        ",
"       .+@@@@@@@@@@@@@@@@@@@@@@@@@@@$%%@        ",
"       .+@@@@@@@@@@@@@@@@@@@@@@@@@@@$%%@        ",
"       .+@@@@@@@@@@@@@@@@@@@@@@@@@@@$%%@        ",
"       .+@@@@@@@@@@@@@@@@@@@@@@@@@@@$%%@        ",
"       .+@@...@@...@@...@@..@@@..@@@$%%@        ",
"       .+@@.@@#@.@@#@.@@#@.@#@.@@#@@$%%@        ",
"       .+@@.@@#@.@@#@.@@#@.@#@.@@#@@$%%@        ",
"       .+@@@##@@@@#@@@##@@@#@@@@@#@@$%%@        ",
"       .+@@@@@@@@@@@@@@@@@@@@@@@@@@@$%%@        ",
"       .+@@@@@@@@@@@@@@@@@@@@@@@@@@@$%%@        ",
"       .+@@+++@@+++@@+++@@..@@&&.@@@$%%@        ",
"       .+@@+@@#@+@@#@+@@#@.@#@&@@#@@$%%@        ",
"       .+@@+@@#@+@@#@+@@#@.@#@.@@#@@$%%@        ",
"       .+@@@###@@@##@@###@@#@@@##@@@$%%@        ",
"       .+@@@@@@@@@@@@@@@@@@@@@@@@@@@$%%@        ",
"       .+@@@@@@@@@@@@@@@@@@@@@@@@@@@$%%@        ",
"       .+@@+++@@+++@@+++@@..@@**.@@@$%%@        ",
"       .+@@+@@#@+@@#@+@@#@.@#@*@@#@@$%%@        ",
"       .+@@+@@#@+@@#@+@@#@.@#@.@@#@@$%%@        ",
"       .+@@@###@@@##@@###@@#@@@##@@@$%%@        ",
"       .+@@@@@@@@@@@@@@@@@@@@@@@@@@@$%%@        ",
"       .+@@@@@@@@@@@@@@@@@@@@@@@@@@@$%%@        ",
"       .+@@+++@@+++@@+++@@..@@==.@@@$%%@        ",
"       .+@@+@@#@+@@#@+@@#@.@#@=@@#@@$%%@        ",
"       .+@@+@@#@+@@#@+@@#@.@#@.@@#@@$%%@        ",
"       .+@@@###@@@##@@###@@#@@@##@@@$%%@        ",
"       .+@@@@@@@@@@@@@@@@@@@@@@@@@@@$%%@        ",
"       .+@@@@@@@@@@@@@@@@@@@@@@@@@@@$%%@        ",
"       .+@@+++@@+++@@+++@@.......@@@$%%@        ",
"       .+@@+@@#@+@@#@+@@#@.@@@@@@#@@$%%@        ",
"       .+@@+@@#@+@@#@+@@#@.@@@@@@#@@$%%@        ",
"       .+@@@###@@@##@@###@@######@@@$%%@        ",
"        +@@@@@@@@@@@@@@@@@@@@@@@@@@$$%%@        ",
"         @@@@@@@@@@@@@@@@@@@@@@@@@$$$%%@        ",
"          $$$$$$$$$$$$$$$$$$$$$$$$$$$%%@        ",
"           %%%%%%%%%%%%%%%%%%%%%%%%%%%%@        ",
"            %%%%%%%%%%%%%%%%%%%%%%%%%%@@        ",
"             @@@@@@@@@@@@@@@@@@@@@@@@@@         "};
