/* XPM */
static char * IconGray_xpm[] = {
"60 60 9 1",
" 	c #DFE0E7",
".	c #60626B",
"+	c #AEB2C3",
"@	c #AEB2C2",
"#	c #AEB2C1",
"$	c #ADB1C2",
"%	c #AEB1BE",
"&	c #AFB3C3",
"*	c #AEB1C2",
"                                                            ",
"                                                           .",
"  ++++++++++++++++++++++++++++++++++++++++++++++++++++++++..",
"  ++++++++++++++++++++++++++++++++++++++++++++++++++++++++..",
"  ++....................................................++..",
"  ++.                                                   ++..",
"  ++. ++++++++++++++++++++++++++++++++++++++++++++++++. ++..",
"  ++. ++++++++++++++++++++++++++++++++++++++++++++++++. ++..",
"  ++. ++++++++++++++++++++++++++++++++++++++++++++++++. ++..",
"  ++. ++++++++++++++++++++++++++++++++++++++++++++++++. ++..",
"  ++. ++++++++++++++++++++++++++++++++++++++++++++++++. ++..",
"  ++. ++++++++++++++++++++++++++++++++++++++++++++++++. ++..",
"  ++. ++++++++++++++++++++++++++++++++++++++++++++++++. ++..",
"  ++. ++++++++++++++++++++++++++++++++++++++++++++++++. ++..",
"  ++. +++++++++++++++++++++++++@@@@+++++++++++++++++++. ++..",
"  ++. ++++++++#+++++++++++++++++$$++++++++++++++++++++. ++..",
"  ++. ++++++++%$$+++++++++++++++++++++++++++++++++++++. ++..",
"  ++. ++++++++@+++++++++++++++++++++++++++++++++++++++. ++..",
"  ++. ++++++++++++++++++++++++++++++++++++++++++++++++. ++..",
"  ++. +++++++++++@++++++++++++++++++++++++++++++++++++. ++..",
"  ++. ++++++++++++++++++++++++++++++++++++++++++++++++. ++..",
"  ++. ++++++++++++++++++++++++++++++++++++++++++++++++. ++..",
"  ++. ++++++++++++++++++++++++++++++++++++++++++++++++. ++..",
"  ++. ++++++++@+++++++++++++++++++++++++++++++++++++++. ++..",
"  ++. ++++++++++++++++++++++++++++++++++++++++++++++++. ++..",
"  ++. ++++++++++++++++++++++++++++++++++++++++++++++++. ++..",
"  ++. ++++++++++++++++++++++++++++++++++++++++++++++++. ++..",
"  ++. ++++++++++++++++++++++++++++++++++++++++++++++++. ++..",
"  ++. ++++++++++++++++++++++++++++++++++++++++++++++++. ++..",
"  ++. ++++++++++++++++++++++++++++++++++++++++++++++++. ++..",
"  ++. ++++++++++++++++++++++++++++++++++++++++++++++++. ++..",
"  ++. ++++++++++++++++++++++++++++++++++++++++++++++++. ++..",
"  ++. ++++++++++++++++++++++++++++++++++++++++++++++++. ++..",
"  ++. ++++++++++++++++++++++++++++++++++++++++++++++++. ++..",
"  ++. +++++++++++++++++++++++++++++++$++++++++++++++++. ++..",
"  ++. ++++++++++++++++++++++++++++++++++++++++++++++++. ++..",
"  ++. +++++++++++++++++++++++++++&++++++++++++++++++++. ++..",
"  ++. ++++++++++++++++++++++++++++++++++++++++++++++++. ++..",
"  ++. ++++++++++++++++++++++++++++++++++++++++++++++++. ++..",
"  ++. ++++++++++++++++++++++++++++++++++++++++++++++++. ++..",
"  ++. ++++++++++++++++++++++++++++++++++++++++++++++++. ++..",
"  ++. ++++++++++++++++++++++++++++++++++++++++++++++++. ++..",
"  ++. ++++++++++++++++++++++++++++++++++++++++++++++++. ++..",
"  ++. ++++++++++++++++++++++++++*$++++++++++++++++++++. ++..",
"  ++. ++++++++++++++++++++++++++++++++++++++++++++++++. ++..",
"  ++. ++++++++++++++++++++++++++++++++++++++++++++++++. ++..",
"  ++. ++++++++++++++++++++++++++++++++++++++++++++++++. ++..",
"  ++. ++++++++++++++++++++++++++++++++++++++++++++++++. ++..",
"  ++. ++++++++++++++++++++++++++++++++++++++++++++++++. ++..",
"  ++. ++++++++++++++++++++++++++++++++++++++++++++++++. ++..",
"  ++. ++++++++++++++++++++++++++++++++++++++++++++++++. ++..",
"  ++. ++++++++++++++++++++++++++++++++++++++++++++++++. ++..",
"  ++. ++++++++++++++++++++++++++++++++++++++++++++++++. ++..",
"  ++. ++++++++++++++++++++++++++++++++++++++++++++++++. ++..",
"  ++. ................................................. ++..",
"  ++.                                                   ++..",
"  ++++++++++++++++++++++++++++++++++++++++++++++++++++++++..",
"  ++++++++++++++++++++++++++++++++++++++++++++++++++++++++..",
" ...........................................................",
"............................................................"};
