/* XPM */
static char * icq_xpm[] = {
"48 48 287 2",
"  	c None",
". 	c #020202",
"+ 	c #010002",
"@ 	c #020102",
"# 	c #000002",
"$ 	c #061302",
"% 	c #0D2802",
"& 	c #081802",
"* 	c #091B02",
"= 	c #040902",
"- 	c #020002",
"; 	c #0C2402",
"> 	c #38BF01",
", 	c #4CFF00",
"' 	c #4BFF00",
") 	c #48F800",
"! 	c #2A8D01",
"~ 	c #081502",
"{ 	c #123B01",
"] 	c #45EB00",
"^ 	c #47F200",
"/ 	c #30A301",
"( 	c #0A1E02",
"_ 	c #123902",
": 	c #44E900",
"< 	c #4AFB00",
"[ 	c #48F600",
"} 	c #48F700",
"| 	c #3BC900",
"1 	c #040802",
"2 	c #35B600",
"3 	c #4AFC00",
"4 	c #49F800",
"5 	c #33AC01",
"6 	c #050B02",
"7 	c #040A02",
"8 	c #32A900",
"9 	c #4AFD00",
"0 	c #227201",
"a 	c #40DA00",
"b 	c #49F900",
"c 	c #133D02",
"d 	c #071202",
"e 	c #3DCF00",
"f 	c #36B600",
"g 	c #39C000",
"h 	c #49FB00",
"i 	c #39C200",
"j 	c #3CCD00",
"k 	c #34B000",
"l 	c #206801",
"m 	c #010102",
"n 	c #061102",
"o 	c #3BC700",
"p 	c #217001",
"q 	c #081602",
"r 	c #43E500",
"s 	c #103202",
"t 	c #050E02",
"u 	c #37BC00",
"v 	c #195302",
"w 	c #47F400",
"x 	c #1F6601",
"y 	c #33AB01",
"z 	c #46EF00",
"A 	c #144001",
"B 	c #1B5A02",
"C 	c #49FA00",
"D 	c #2E9A00",
"E 	c #030602",
"F 	c #2E9C01",
"G 	c #48F500",
"H 	c #217101",
"I 	c #061202",
"J 	c #0A1C02",
"K 	c #091C02",
"L 	c #061002",
"M 	c #216B01",
"N 	c #020302",
"O 	c #298B01",
"P 	c #33AA00",
"Q 	c #0F3002",
"R 	c #1F6801",
"S 	c #206B01",
"T 	c #113502",
"U 	c #060E02",
"V 	c #237501",
"W 	c #3CCC00",
"X 	c #39C301",
"Y 	c #227101",
"Z 	c #030502",
"` 	c #278301",
" .	c #41DF00",
"..	c #257B01",
"+.	c #36B801",
"@.	c #020402",
"#.	c #1B5701",
"$.	c #3CCC01",
"%.	c #278501",
"&.	c #30A201",
"*.	c #3CCB00",
"=.	c #2F9F01",
"-.	c #47F100",
";.	c #0E2D02",
">.	c #206C01",
",.	c #3DD000",
"'.	c #091A02",
").	c #267E01",
"!.	c #40D900",
"~.	c #071502",
"{.	c #134002",
"].	c #174C01",
"^.	c #030402",
"/.	c #1D6001",
"(.	c #3FD700",
"_.	c #44E700",
":.	c #144202",
"<.	c #30A401",
"[.	c #33AE01",
"}.	c #2B8F01",
"|.	c #081702",
"1.	c #000001",
"2.	c #184C02",
"3.	c #37BA00",
"4.	c #3CCD01",
"5.	c #0E2C02",
"6.	c #298C01",
"7.	c #030302",
"8.	c #6A6A08",
"9.	c #9C9A0C",
"0.	c #7A780A",
"a.	c #161603",
"b.	c #103301",
"c.	c #4AFF00",
"d.	c #227001",
"e.	c #060F02",
"f.	c #164802",
"g.	c #47F300",
"h.	c #46EE00",
"i.	c #262504",
"j.	c #F0EE11",
"k.	c #FFFF13",
"l.	c #FFFF12",
"m.	c #F8F512",
"n.	c #3C3C06",
"o.	c #40DB00",
"p.	c #3FD800",
"q.	c #37BB00",
"r.	c #2C9600",
"s.	c #174B01",
"t.	c #0B2202",
"u.	c #3ED400",
"v.	c #38BD00",
"w.	c #31A601",
"x.	c #2A8F01",
"y.	c #247801",
"z.	c #1D6101",
"A.	c #174A01",
"B.	c #0E2B02",
"C.	c #0D0D03",
"D.	c #D9D810",
"E.	c #FFFE12",
"F.	c #FDFB12",
"G.	c #F4F212",
"H.	c #111003",
"I.	c #010302",
"J.	c #0B1F02",
"K.	c #050D02",
"L.	c #071402",
"M.	c #4C4B07",
"N.	c #F4F211",
"O.	c #6A6909",
"P.	c #010202",
"Q.	c #000202",
"R.	c #595808",
"S.	c #F7F512",
"T.	c #7E7D0A",
"U.	c #050C02",
"V.	c #071302",
"W.	c #000201",
"X.	c #260205",
"Y.	c #490109",
"Z.	c #71010D",
"`.	c #5F010C",
" +	c #000101",
".+	c #313105",
"++	c #F3F111",
"@+	c #403F06",
"#+	c #1F6501",
"$+	c #268101",
"%+	c #2B9101",
"&+	c #34B200",
"*+	c #3ED200",
"=+	c #41DC00",
"-+	c #42E100",
";+	c #41DD00",
">+	c #2F9E01",
",+	c #2D0107",
"'+	c #AD0114",
")+	c #E7001A",
"!+	c #ED001A",
"~+	c #F5001B",
"{+	c #FF001C",
"]+	c #9F9E0C",
"^+	c #B1B00D",
"/+	c #0B2402",
"(+	c #36B701",
"_+	c #110204",
":+	c #9F0113",
"<+	c #FF001D",
"[+	c #9F0112",
"}+	c #96940C",
"|+	c #EFEE11",
"1+	c #F1EF11",
"2+	c #EDEB11",
"3+	c #A7A60D",
"4+	c #050502",
"5+	c #1B5B02",
"6+	c #B90115",
"7+	c #8D0110",
"8+	c #201F04",
"9+	c #2A2A05",
"0+	c #2E9A01",
"a+	c #470109",
"b+	c #FF001E",
"c+	c #70010D",
"d+	c #123A01",
"e+	c #144402",
"f+	c #3AC400",
"g+	c #081902",
"h+	c #030702",
"i+	c #237601",
"j+	c #37BB01",
"k+	c #2D0106",
"l+	c #FA001C",
"m+	c #FE001C",
"n+	c #F9001B",
"o+	c #EA001A",
"p+	c #4A0209",
"q+	c #195301",
"r+	c #41DE00",
"s+	c #42DF00",
"t+	c #0A1F02",
"u+	c #288501",
"v+	c #350107",
"w+	c #6E010D",
"x+	c #76010E",
"y+	c #59010B",
"z+	c #150204",
"A+	c #216E01",
"B+	c #1C5C01",
"C+	c #35B500",
"D+	c #3BCA00",
"E+	c #123901",
"F+	c #3ED100",
"G+	c #45ED00",
"H+	c #0C2602",
"I+	c #1B5901",
"J+	c #206A01",
"K+	c #2C9501",
"L+	c #164701",
"M+	c #113501",
"N+	c #2FA001",
"O+	c #103002",
"P+	c #1A5201",
"Q+	c #1A5701",
"R+	c #46F000",
"S+	c #103402",
"T+	c #3CC900",
"U+	c #0C2502",
"V+	c #247B01",
"W+	c #35B400",
"X+	c #2D9901",
"Y+	c #2D9801",
"Z+	c #35B401",
"`+	c #113602",
" @	c #2A8C01",
".@	c #34B100",
"+@	c #1F6602",
"@@	c #1E6601",
"#@	c #4AFE00",
"$@	c #144002",
"%@	c #2B9300",
"&@	c #154701",
"*@	c #3AC700",
"=@	c #3FD701",
"-@	c #2D9501",
"                                                                                                ",
"                                                                                                ",
"                                                                                                ",
"                                                        . .                                     ",
"                                . .                 . . + + . . .                               ",
"                            . . . . . .         . . @ # $ % # # . .                             ",
"                          . . . & * = - .       . @ ; > , ' ) ! ~ @ .                           ",
"                          . + { ] ^ / ( + .   . - _ : < [ [ } , | 1 @ .                         ",
"                          . # 2 3 [ 4 5 6 . . . 7 8 4 [ [ [ [ [ 9 0 # .                         ",
"                          . # a b [ [ ' c + . . d e } [ [ [ [ [ 4 f # .                         ",
"                          . # g h [ [ h i # . . d j } [ [ [ [ [ b k # .                         ",
"                          . + l ' [ [ [ ' m @ . n o } [ [ [ [ [ 9 p # .                         ",
"                          . . q r } [ [ ' s + . t u } [ [ [ [ 4 : + @ .                         ",
"                  . . . . . . . v w [ [ 9 x # . 7 y 4 [ [ [ } z A + . . . . . . .               ",
"              . . . . . . . . . + B , [ C D # . E F 4 [ [ [ G H @ . . . @ + + @ . .             ",
"            . @ @ I J K L . . . . # M b } j # . N O b [ [ b P # . . . n Q R S T 1 . .           ",
"          . @ U V W b } X Y Z + . . @ ` )  .7 . + ..4 [ ' +.@.- . + #.$., ' ' ' %.E .           ",
"        . . = &.} } [ [ } [ *.& # . . - =.-.;.@ + >.G ) ,.'.@ . # ).G } [ [ [ } !.~..           ",
"        . + {., [ [ [ [ [ [ } -.].^.@ . # /.U . - c (._.:.+ @ = <.' [ [ [ [ [ 4 [.6 .           ",
"        . # <.9 [ [ [ [ [ [ [ ) [ }.|.+ . # # 1.1.# I 2.# # ( 3.C [ [ [ [ ) ' 4.5.- .           ",
"        . # y 3 [ [ [ [ [ [ [ [ [ h 6.# m 7.8.9.0.a.# - # b.r 4 4 C 3 c.' ] d.e.@ .             ",
"        . + f.9 } } } } 4 b 4 g.h.h.Z # i.j.k.l.l.m.n.# K o. .p.q.r.d.s.t.# + . .               ",
"        . . Z d.| _.u.v.w.x.y.z.A.B.# C.D.E.F.F.F.l.G.H.I.J.K.# # # # # + . . .                 ",
"          . . N n & L.U = N + + + @ # M.N.F.F.F.F.F.l.O.1.@ @ . . . . . . . . . .               ",
"            . . . . . . . . P.Q.Q.P.# R.S.F.F.F.F.F.l.T.1.+ + ^.1 U.e.V.~ |.q 1 - .             ",
"                . . . Q.W.P.X.Y.Z.`. +.+++F.F.F.F.F.k.@+# #+$+%+&.&+i *+=+-+;+>+t.- .           ",
"                . . W.,+'+)+!+~+{+{+W.1.]+k.F.F.F.k.^+# /+r b 4 4 ) } } } } } 4 (+6 . .         ",
"              . P._+:+<+{+{+{+{+{+[+W.. 1.}+|+1+2+3+4+@ t.j 4 [ [ [ [ [ [ [ [ [ , 5++ .         ",
"            . . W.6+<+{+{+{+{+{+7+Q.. @ # # 8+@+9+# # + + U 0+3 } [ [ [ [ [ [ [ h 3.# .         ",
"            . W.a+<+{+{+{+{+b+c+. . @ 6 D d+P.# I.e+f+g++ @ h+i+) [ [ [ [ [ [ [ h j+# .         ",
"            . Q.k+l+m+{+n+o+p+W.. . Z %+b ) q++ ~.r+b s+t+@ . # /.h.4 [ [ [ [ [ ' u+# .         ",
"              . W.v+w+x+y+z+W.. . # A+C [ -.B++ U.C+) 4 D+q @ . # E+F+C [ [ [ 4 G+H+@ .         ",
"              . . P.Q.Q.Q.P.. . # I+} } [ G J++ Z K+4 [ C o # . . @ * D+, 9 ' ] L+. .           ",
"                . . . . . . . @ M+h.[ [ [ 4 ..+ + i+} [ [ 3 N+# . . @ # O+S P+# + . .           ",
"                          . @ |.,.4 [ [ [ b ! N + Q+R+[ [ [ G+S+@ . . . + # # @ . .             ",
"                          . # T+C [ [ [ [ 4 &.1 @ U+r [ [ [ } V++ .     . . . .                 ",
"                        . # ].' [ [ [ [ [ ) W+U.. # v.4 [ [ 4 X+E .                             ",
"                        . # Y+C [ [ [ [ [ ) Z+U.. + `+c.} [ b  @N .                             ",
"                        . # .@4 [ [ [ [ [ ) W+U.. . + +@, C G ].+ .                             ",
"                        . # @@#@[ [ [ [ [ 4 %+Z . . . + $@%@&@# . .                             ",
"                        . @ N *@, [ [ } ' =@; @ .   . . + # # . .                               ",
"                          . @ q 0+' ' h -@L.- .         . . . .                                 ",
"                            . . # @ t+N # . . .                                                 ",
"                              . . @ + @ . .                                                     ",
"                                    . .                                                         ",
"                                                                                                ",
"                                                                                                ",
"                                                                                                "};
