/* XPM */
static char * libreoffice_draw_xpm[] = {
"48 48 6 1",
" 	c None",
".	c #808000",
"+	c #FFFF00",
"@	c #C0C0C0",
"#	c #FFFFFF",
"$	c #808080",
".+.+.+.+.+.+.+.+.+.++++@@@@@++.+.+.+.+.+.+.+.   ",
"++++++++++++++++++++@@@####@@.+++++++++++++++@  ",
"++++++++++@@@@@@++@@####@....@++++++++++++++++  ",
"+++++++@@@######@@####...@++++++++++++++++++++  ",
"+++++@@#############..@+++++++++++++++++++++++@ ",
"+#++@#####.....@##@.@+++++@@@@@@+++#+#+#+#+#+#+ ",
"#++@##@...@++++....++++@@@#####@@.++#+#+#+#+#++ ",
"+#+@...@+++#+#+#+#+++@@#####@....@+#+#+#+#+#+#+@",
"#+#+++++#+#+#+#+#++@@#####@..@++++#+#+#+#+#+#+#+",
"+#+#+#+#+#++++++++@#####@..@+#+#+#+#+#+#+#+#+#+@",
"#+#+#+#+++@@@@@@@@#####@.+++#+#+#+#+#+#+#+#+#+#+",
"+#+#++++@@############..+#+#+#+#+#+#+#+#+#+#+#+@",
"++++++@@#############.$+++++++++++++++++++++++++",
"++++@@######@@######.$+++++++++++++++++++++++++@",
"++@@###@.........##@.++++++++++++++++++++++++++@",
"+@###@..@++++++++...+++++++++++++++++++++++++++ ",
"@##@..@++++++++++++++++++++++++++++++++++++++++ ",
"$#..@+++++++++++++++++++++++++++++++++++++++++@ ",
"+.@+++++++++++++++++++++++++++++++++++++++++++  ",
"++++++++++++++++++++++++++++++++++++++++++++++  ",
"@+@+@+@+@+@+@+@+@+@+@+@+@+@+@+@+@+@+@+@+@+@+@+  ",
"+++++++++++++++++++++++++++++++++++++++++++++@  ",
"@+@+@+@+@+@+@+@+@######+@+@+@+@+@+@+@+@+@+@+@   ",
"+++++++++++++++##########++++++++++++++++++++   ",
"@+@+@+@+@+@+@+############@+@+@+@+@+@+@+@+@+@   ",
"+++++++++++++##############+++++++++++++++++    ",
"@+@+@+@+@+@+@##############+@+@+@+@+@+@+@+@+    ",
"+@+@+@+@+@+@################+@+@+@+@+@+@+@+@    ",
"@+@+@+@+@+@+######@+@+######@+@+@+@+@+@+@+@@    ",
"+@+@+@+@+@+@#####@+@+@######+@+@+@+@+@+@+@+     ",
"@+@+@+@+@+@+@###@+@+@######+@+@+@+@+@+@+@+@     ",
"+@+@+@+@+@+@+@+@+@+@#######@+@+@+@+@+@+@+@+     ",
".+.+.+.+.+.+.+.+.+.#######.+.+.+.+.+.+.+.+.     ",
"+@+@+@+@+@+@+@+@+@#######@+@+@+@+@+@+@+@+@+     ",
".+.+.+.+.+.+.+.+.#######.+.+.+.+.+.+.+.+.+.     ",
"+@+@+@+@+@+@+@+@+######@+@+@+@+@+@+@+@+@+@+     ",
".+.+.+.+.+.+.+.+.#####.+.+.+.+.+.+.+.+.+.+.     ",
"+@+@+@+@+@+@+@+@+######@+@+@+@+@+####@+@+@+     ",
".+.+.+.+.+.+.+.+.#######.+.+.+.+######.+.+.     ",
"+@+@+@+@+@+@+@+@+#####################+@+@+     ",
".+.+.+.+.+.+.+.+.+####################.+.+.     ",
"+@+@+@+@+@+@+@+@+@####################+@+@+     ",
".+.+.+.+.+.+.+.+.+.##################+.+.+.     ",
"+.+.+.+.+.+.+.+.+.+.+###############+.+.+.+@    ",
".+.+.+.+.+.+.+.+.+.+.+.+##########.+.+.+.+.+    ",
"+.+.+.+.+.+.+.+.+.+.+.+.+.+.+.+.+.+.+.+.+.+.    ",
".+.+.+.+.+.+.+.+.+.+.+.+.+.+.+.+.+.+.+.+.+.+@   ",
"+.+.+.+.+.+.+.+.+.+.+.+.+.+.+.+.+.+.+.+.+.+.+   "};
