/* XPM */
static char * libreoffice_startcenter_xpm[] = {
"48 48 56 1",
" 	c None",
".	c #FFFFFF",
"+	c #BDBDBD",
"@	c #000000",
"#	c #070707",
"$	c #464646",
"%	c #959595",
"&	c #BCBCBC",
"*	c #B8B8B8",
"=	c #424242",
"-	c #909090",
";	c #949494",
">	c #8E8E8E",
",	c #B5B5B5",
"'	c #0505FA",
")	c #0000F5",
"!	c #0202F7",
"~	c #FA0505",
"{	c #737373",
"]	c #636363",
"^	c #FFFF00",
"/	c #00FFFF",
"(	c #F803F8",
"_	c #FF00FF",
":	c #FF0000",
"<	c #0000FF",
"[	c #000AFF",
"}	c #0000FE",
"|	c #F702F7",
"1	c #F80303",
"2	c #FA05FA",
"3	c #616161",
"4	c #6A6A6A",
"5	c #5C5C5C",
"6	c #4D4D4D",
"7	c #42423E",
"8	c #4E5151",
"9	c #555553",
"0	c #595959",
"a	c #424646",
"b	c #494948",
"c	c #444444",
"d	c #5E5E5E",
"e	c #565656",
"f	c #828282",
"g	c #4F4F4F",
"h	c #1313C2",
"i	c #07F2FC",
"j	c #FC07F2",
"k	c #0AFF00",
"l	c #FE0000",
"m	c #00F5FF",
"n	c #FC0707",
"o	c #FF00F5",
"p	c #BFBFBF",
"q	c #0A0A0A",
"                                                ",
" .......................................        ",
" .+++++++++++++++++++++++++++++++++++++@        ",
" .+#@$+$$%++++++++++++++++++++++++%$#++@        ",
" .+#@$+$$%++++++++++++++++++++++++%$#++@        ",
" .++&+&&+&&&+&+&&+&&+&+&&+&&&&+&+&+&&++@        ",
" .+++++++++++++++++++++++++++++++++++++@        ",
" .+*&@=@-+===@+=@=+==@+=@=+==-@+=@=+=&+@        ",
" .+++++++++++++++++++++++++++++++++++++@        ",
" .+=@+;@===@+;@==@=+=@+;@==+@=>+@+@==++@        ",
" .+++++++++++++++++++++++++++++++++++++@        ",
" .+@@,==@@&@@==@&=@&@')!!)@!+===@+=@=++@        ",
" .+++++++++++++++++++++++++++++++++++++@        ",
" .+&&+@@+@@@+@@+@+@+@=+@=+@+@+@=+@=+@++@        ",
" .+++++++++++++++++++++++++++++++++++++@        ",
" .+@=+=@+@@=+=@+@=@+=@=+==@=@+=@=+==@++@        ",
" .+++++++++++++++++++++++++++++++++++++@        ",
" .+@=+@=@@=+@=@+@+@=+++++++++++++++++++@        ",
" .+++++++++++++++++++~{{;;;]{{{;;;^/^@+@        ",
" .+&&&+&&&&&+&&&&+&&+]]]{++;{;]{++/^/@+@        ",
" .+++++++++++++++++++~==((_;;{=](_;;{@+@        ",
" .+&+@+@+@+@+@+@@+@>+;/===]]]]===]]]]@+@        ",
" .+++++++++++++++++++:;==]]{]]==]]{]]@+@        ",
" .+;@===@;@===@+;@==+;/===]^/^===]^/^@+@        ",
" .+++++++++++++++++++:<===]/^[===]/^/@+@        ",
" .+==@@&)!!)}&@>==@#+;=<==]];;<==]];;@+@        ",
" .+++++++++++++++++++]<_|(|;;'_|(|;;;@+@        ",
" .+@@+>>>@@+@@@+@>+@+1]]]]_;]]]]]_2]]@+@        ",
" .+++++++++++++++++++;/===]]]]===]]]]@+@        ",
" .+=@+>@==@+@@=+=@+@+:;==]3435==]]{]]@+@        ",
" .+++++++++++++++++++;/===6789===]^/^@+@        ",
" .+@=+@@=@=+@@=@>=+@+:<===0ab!c==]/^/@+@        ",
" .+++++++++++++++++++;=<==defgh==]];;@+@        ",
" .+=+=@@>-%*&&&&&+&&+]<_=]=;;'_=]=;;;@+@        ",
" .+++++++++++++++++++1]]]]_;]]]]]_;]]@+@        ",
" .+++++++++++++++++++@@@@@@@@@@@@@@@@@+@        ",
" .++++++++++++i$+++++++++++++++++++++++@        ",
" .+++=+j$+++++i$++k=+l=+++++++++^=++=++@        ",
" .+++++j$+++++m=++k=+n$+++++<=++^=+++++@        ",
" .+++=+o=+++++m=++k=+n=+++++<=++^=++=++@        ",
" .+++++o=+p*++m=++k=+n$+.=++<=++^=+++++@        ",
" .+++=+o=+.=++m=++k=+n=+.=++<=++^=++=++@        ",
" .+++++o=+.=++m=++k=+n$+.=++<=++^=+++++@        ",
" .+++================================++@        ",
" .++++++++++++++p++++++++++++++++++++++@        ",
" .++++++++++++++p++++++++++++++++++++++@        ",
" .@@@@@@@@@@@@@@q@@@@@@@@@@@@@@@@@@@@@@@        ",
"                                                "};
