/* XPM */
static char * libreoffice_web_xpm[] = {
"48 48 6 1",
" 	c None",
".	c #0000FF",
"+	c #808080",
"@	c #C0C0C0",
"#	c #FFFFFF",
"$	c #000080",
"......................+++++++................   ",
"...................+++@####@@$...............+  ",
"..........+++++++++@####@$$$$.................  ",
".@.@.@.+++######@@####$$$+.+.@.@.@.@.@.@.@.@.+  ",
"@.@.@++#############$$+.@.@.@.@.@.@.@.@.@.@.@.+ ",
".@.@+####$$$$$$$##@$++.@.$$$$$$$$+.@.@.@.@.@.@. ",
"@.@+##$$$.+.+.+.$$$.+.+++@#####@@$+.@.@.@.@.@.+ ",
".@.$$$++.@.@.@.@.+.+++@#####@$$$$+.@.@.@.@.@.@.+",
"@.@.+.@.@.@.@.@.@.++@#####@$$.+.+.@.@.@.@.@.@.++",
".@.@.@.@.@.@.+.+.++#####@$$+.@.@.@.@.@.@.@.@.@.+",
"@.@.@.@.@.++@@@@++#####@$.+.@.@.@.@.@.@.@.@.@.++",
".@.@.@.++@############$$.@.@.@.@.@.@.@.@.@.@.@.+",
"@.@.@++@#############$+.@.@.@.@.@.@.@.@.@.@.@.++",
".@.++@######@@######$+.@.@.@.@.@.@.@.@.@.@.@.@.+",
"@.+@###@$$$$$$$$$##$+.@.@.@.@.@.@.@.@.@.@.@.@.++",
".+###@$+.+.+.+.+.$$+.@.@.@.@.@.@.@.@.@.@.@.@.@. ",
"+##@$$+.@.@.@.@.@.+.@.@.@.@.@.@.@.@.@.@.@.@.@.. ",
"+#$$.@.@.@.@.@.@.@.@.@.@.@.@.@.@.@.@.@.@.@.@.@+ ",
"@$+.@.@.@.@.@.@.@.@.@.@.@.@.@.@.@.@.@.@.@.@.@.  ",
".+.@.@.@.@.@.@.@.@.@.@.@.@.@.@.@.@.@.@.@.@.@.+  ",
"...........#######################............  ",
".@.@.@.@.@.########################@.@.@.@.@.+  ",
"...........########################..........   ",
".@.@.@.@.@.#######################.@.@.@.@.@.   ",
"............................................+   ",
"............................................    ",
"............................................    ",
".+.+.+.+.+.+.+.+.+.+.+.+.+.+.+.+.+.+.+.+.+.+    ",
"...........................................+    ",
".+.+.+.+.+.###################.+.+.+.+.+.+.     ",
"...........####################............     ",
".+.+.+.+.+.####################+.+.+.+.+.+.     ",
"...........###################.............     ",
".+.+.+.+.+.+.+.+.+.+.+.+.+.+.+.+.+.+.+.+.+.     ",
"...........................................     ",
".+.+.+.+.+.+.+.+.+.+.+.+.+.+.+.+.+.+.+.+.+.     ",
"+.+.+.+.+.+.+.+.+.+.+.+.+.+.+.+.+.+.+.+.+.+     ",
".+.+.+.+.+.+.+.+.+.+.+.+.+.+.+.+.+.+.+.+.+.     ",
"+.+.+.+.+.+#######################+.+.+.+.+     ",
".+.+.+.+.+.########################+.+.+.+.     ",
"+.+.+.+.+.+########################.+.+.+.+     ",
".$.$.$.$.$.#######################.$.$.$.$.     ",
"+.+.+.+.+.+.+.+.+.+.+.+.+.+.+.+.+.+.+.+.+.+     ",
".$.$.$.$.$.$.$.$.$.$.$.$.$.$.$.$.$.$.$.$.$.$    ",
"+.+.+.+.+.+.+.+.+.+.+.+.+.+.+.+.+.+.+.+.+.+.    ",
".$.$.$.$.$.$.$.$.$.$.$.$.$.$.$.$.$.$.$.$.$.$    ",
"$.$.$.$.$.$.$.$.$.$.$.$.$.$.$.$.$.$.$.$.$.$.$   ",
".$.$.$.$.$.$.$.$.$.$.$.$.$.$.$.$.$.$.$.$.$.$.   "};
