/* XPM */
static char * libreoffice_base_xpm[] = {
"48 48 7 1",
" 	c None",
".	c #800000",
"+	c #808080",
"@	c #C0C0C0",
"#	c #FFFFFF",
"$	c #000000",
"%	c #FF0000",
"......................+++++++................   ",
"...................+++@####@@+...............+  ",
"..........+++++++++@####@$+++.................  ",
".......+++######@@####$$+.....................  ",
"%.%.%++#############$$+.%.%.%.%.%.%.%.%.%.%.%.+ ",
".%.%+####%.%.%.@##@$+%.%.++++++++%.%.%.%.%.%.%. ",
"%.%+##@.%.%.%.%.$$+.%.+++@#####@@+%.%.%.%.%.%.% ",
".%.%+++%.%.%.%.%.%.%++@#####@$$++%.%.%.%.%.%.%.+",
"%.%.%.%.%.%.%.%.%.%+@#####@$+.%.%.%.%.%.%.%.%.%+",
".%.%.%.%.%.%.%.%.%+#####@$+%.%.%.%.%.%.%.%.%.%.+",
"%.%.%.%.%.++@@@@++#####@$.%.%.%.%.%.%.%.%.%.%.%+",
".%.%.%.++@############$+.%.%.%.%.%.%.%.%.%.%.%.+",
"%.%.%++@#############$+.%.%.%.%.%.%.%.%.%.%.%.%+",
".%.++@######@@######$+.%.%.%.%.%.%.%.%.%.%.%.%.+",
"%.+@###@%.%.%.%.$##@+.%.%.%.%.%.%.%.%.%.%.%.%.%+",
".+###@.%.%.%.%.%.$$+.%.%.%.%.%.%.%.%.%.%.%.%.%. ",
"+##@++......................................... ",
"+#++.%.%.%.%.%.%.%.%.%.%.%.%.%.%.%.%.%.%.%.%.%+ ",
".+................@#######@...................  ",
".%.%.%.%.%.%.%.%#############%.%.%.%.%.%.%.%.%  ",
"..............#################...............  ",
".%.%.%.%.%.%.######@@@@@@@######.%.%.%.%.%.%.+  ",
"............@####...........####@............   ",
".%.%.%.%.%.%###@.%.%.%.%.%.%.@###%.%.%.%.%.%.   ",
"............###...............###...........+   ",
"............###...............###...........    ",
"%.%.%.%.%.%.###@%.%.%.%.%.%.%@###.%.%.%.%.%.    ",
"............####@...........@####...........    ",
"............######.........######..........+    ",
".%.%.%.%.%.%########@@@@@########%.%.%.%.%.     ",
"............#####################..........     ",
"............###.@###########@.###..........     ",
"............###....@#####@....###..........     ",
"............###...............###..........     ",
"............###...............###..........     ",
"............###...............###..........     ",
"............###...............###..........     ",
"............###...............###..........     ",
"............###...............###..........     ",
"............####.............####..........     ",
"............@####...........####@..........     ",
".............######@.....@######...........     ",
"..............#################............     ",
"................#############..............+    ",
"..................@#######@.................    ",
"............................................    ",
"............................................+   ",
".............................................   "};
