/* XPM */
static char * libreoffice_math_xpm[] = {
"48 48 6 1",
" 	c None",
".	c #00FFFF",
"+	c #008080",
"@	c #808080",
"#	c #C0C0C0",
"$	c #FFFFFF",
".+.+.+.+.+.+.+.+.+.+.+@@@@@@@+.+.+.+.+.+.+.+.   ",
"+.+.+.+.+.+.+.+.+.+@@@#$$$$##@+.+.+.+.+.+.+.+#  ",
".+.+.+.+.+@@@@@@@@@#$$$$#+++++.+.+.+.+.+.+.+.+  ",
"+.+.+.+@@@$$$$$$##$$$$+++.+.+.+.+.+.+.+.+.+.+.  ",
".#.#.@@$$$$$$$$$$$$$++@#.#.#.#.#.#.#.#.#.#.#.## ",
"....@$$$$++++++#$$#+@....##@@@@@#.............. ",
"...+$$#++#.....+++@...##@#$$$$$##+............. ",
"...#++@#............###$$$$$#++++..............#",
"...................@#$$$$$#++#..................",
"..................@$$$$$#++#...................#",
".#.#.#.#.#########$$$$$#+#.#.#.#.#.#.#.#.#.#.#..",
".......###$$$$$$$$$$$$++#......................#",
".#.#.###$$$$$$$$$$$$$+@#.#.#.#.#.#.#.#.#.#.#.#..",
"...###$$$$$$##$$$$$$+@.........................#",
".###$$$#+++++++++$$#+#.#.#.#.#.#.#.#.#.#.#.#.#.#",
".#$$$#++#.......#+++........................... ",
"#$$#++##.#.#.#.#.#.#.#.#.#.#.#.#.#.#.#.#.#.#.#. ",
"+$++#.........................................# ",
".+##.@.@.@.@.@.@.@.@.@.@.@.@.@.@.@.@.@.@.@.@.@  ",
"..............................................  ",
".@.@.@.@.@.@.@.@.@.@.@.@.@.@.@.@.@.@.@.@.@.@.#  ",
"..............................................  ",
".@.@.@.@.@.@.@.$$$$$$$$$$$$$$$$$$@.@.@.@.@.@.   ",
"...............$$$$$$$$$$$$$$$$$$#...........   ",
".@.@.@.@.@.@.@.$$$$$$$$$$$$$$$$$$#.@.@.@.@.@#   ",
"...............#$$$$$$$$$$$$$$$$$...........    ",
".@.@.@.@.@.@.@.@$$$$$$.@.@.@.@.@.@.@.@.@.@.@    ",
"#.#.#.#.#.#.#.#.#$$$$$$.#.#.#.#.#.#.#.#.#.#.    ",
".+.+.+.+.+.+.+.+.+$$$$$$.+.+.+.+.+.+.+.+.+.#    ",
"#.#.#.#.#.#.#.#.#.#$$$$$$.#.#.#.#.#.#.#.#.#     ",
".+.+.+.+.+.+.+.+.+.+$$$$$$.+.+.+.+.+.+.+.+.     ",
"#.#.#.#.#.#.#.#.#.#.#$$$$$$.#.#.#.#.#.#.#.#     ",
".+.+.+.+.+.+.+.+.+.+.+$$$$$$.+.+.+.+.+.+.+.     ",
"#.#.#.#.#.#.#.#.#.#.#.$$$$$$#.#.#.#.#.#.#.#     ",
".+.+.+.+.+.+.+.+.+.+.$$$$$$+.+.+.+.+.+.+.+.     ",
"+.+.+.+.+.+.+.+.+.+.$$$$$$+.+.+.+.+.+.+.+.+     ",
".+.+.+.+.+.+.+.+.+.$$$$$$+.+.+.+.+.+.+.+.+.     ",
"+.+.+.+.+.+.+.+.+.$$$$$$+.+.+.+.+.+.+.+.+.+     ",
".+.+.+.+.+.+.+.+.$$$$$$+.+.+.+.+.+.+.+.+.+.     ",
"+.+.+.+.+.+.+.+.$$$$$$+.+.+.+.+.+.+.+.+.+.+     ",
".+.+.+.+.+.+.+.#$$$$$$$$$$$$$$$$$+.+.+.+.+.     ",
"+.+.+.+.+.+.+.+$$$$$$$$$$$$$$$$$$#+.+.+.+.+     ",
".+.+.+.+.+.+.+.$$$$$$$$$$$$$$$$$$#.+.+.+.+.     ",
"+.+.+.+.+.+.+.+$$$$$$$$$$$$$$$$$$.+.+.+.+.+#    ",
".+.+.+.+.+.+.+.+.+.+.+.+.+.+.+.+.+.+.+.+.+.+    ",
"+.+.+.+.+.+.+.+.+.+.+.+.+.+.+.+.+.+.+.+.+.+.    ",
".+.+.+.+.+.+.+.+.+.+.+.+.+.+.+.+.+.+.+.+.+.+#   ",
"+.+.+.+.+.+.+.+.+.+.+.+.+.+.+.+.+.+.+.+.+.+.+   "};
