/* XPM */
static char * libreoffice_calc_xpm[] = {
"48 48 6 1",
" 	c None",
".	c #008000",
"+	c #808080",
"@	c #C0C0C0",
"#	c #FFFFFF",
"$	c #000000",
"......................+++++++................   ",
"...................+++@####@@+...............+  ",
"@.@.@.@...+++++++++@####@$$$+.@.@.@.@.@.@.@.@.  ",
".@.@.@.+++######@@####$$+....@.@.@.@.@.@.@.@..  ",
".....++#############$$+.......................+ ",
"....+####$$$$$$@##@$+....++++++++.............. ",
"...+##@$$.......$$+...+++@#####@@+............+ ",
"....+$..............++@#####@$$$+..............+",
"...................+@#####@$$..................+",
"..................+#####@$$....................+",
"..........++@@@@++#####@$......................+",
".......++@############$+.......................+",
".....++@#############$+........................+",
"...++@######@@######$+.........................+",
"..+@###@$$$$$$$$$##@+..........................+",
".+###@$..........$$+........................... ",
"+##@+$........................................@ ",
"+#+$.@.@.@.@.@.@.@.@.@.@.@.@.@.@.@.@.@.@.@.@.@+ ",
".+............................................  ",
".@.@.@.@.@.@.@.@.@.@.@.@.@.@.@.@.@.@.@.@.@.@.@  ",
"..............................................  ",
".@.@.@.@.@.@.@.@.@.@.@.@.@.@.@.@.@.@.@.@.@.@.+  ",
"............................................@   ",
".@.@.@.@.@.@.#####################.@.@.@.@.@.   ",
".............#####################..........+   ",
".@.@.@.@.@.@.#####################.@.@.@.@.@    ",
"@.@.@.@.@.@.@###@.@.@.###.@.@.@###@.@.@.@.@.    ",
".@.@.@.@.@.@.###.@.@.@###@.@.@.###.@.@.@.@.+    ",
"@.@.@.@.@.@.@###@.@.@.###.@.@.@###@.@.@.@.@+    ",
".@.@.@.@.@.@.###.@.@.@###@.@.@.###.@.@.@.@.     ",
"@.@.@.@.@.@.@###@.@.@.###.@.@.@###@.@.@.@.@     ",
".+.+.+.+.+.+.#####################.+.+.+.+.     ",
"@.@.@.@.@.@.@#####################@.@.@.@.@     ",
".+.+.+.+.+.+.#####################.+.+.+.+.     ",
"@.@.@.@.@.@.@###@.@.@.###.@.@.@###@.@.@.@.@     ",
".+.+.+.+.+.+.###.+.+.+###+.+.+.###.+.+.+.+.     ",
"@.@.@.@.@.@.@###@.@.@.###.@.@.@###@.@.@.@.@     ",
".+.+.+.+.+.+.###.+.+.+###+.+.+.###.+.+.+.+.     ",
".............###......###......###.........     ",
".+.+.+.+.+.+.#####################.+.+.+.+.     ",
".............#####################.........     ",
".+.+.+.+.+.+.#####################.+.+.+.+.     ",
"...........................................     ",
"...........................................+    ",
"............................................    ",
"............................................    ",
"............................................+   ",
".............................................   "};
