/* XPM */
static char * libreoffice_impress_xpm[] = {
"48 48 6 1",
" 	c None",
".	c #FF0000",
"+	c #808080",
"@	c #C0C0C0",
"#	c #FFFFFF",
"$	c #800000",
"......................+++++++...............@   ",
"...................+++@####@@$...............@  ",
"..........+++++++++@####@$$$$.................  ",
".#.#...+++######@@####$$$@.@.#.#.#.#.#.#.#.#.@  ",
"#.#..++#############$$+.@.......#.#.#.#.#.#.#.@ ",
".#..+#####$$$$$@##@$+@...++++++++@.#.#.#.#.#.#. ",
"#..+##@$$$@.@.@$$$$.@.+++@#####@@$@.#.#.#.#.#.@ ",
".#.@$$$@.#.#.#.#.#..++@#####@$$$$+.#.#.#.#.#.#.@",
"@.@.@.@.@.@.@.@.@..+@#####@$$.@.@.@.@.@.@.@.@.@+",
".#.#.#.#.#........+#####@$$+.#.#.#.#.#.#.#.#.#.+",
"@.@.@.@.@.++@@@@++#####@$.@.@.@.@.@.@.@.@.@.@.@+",
".#.#.#.++@############$$.#.#.#.#.#.#.#.#.#.#.#.+",
"@.@.@++@#############$+.@.@.@.@.@.@.@.@.@.@.@.@+",
".@.++@######@@######$+.@.@.@.@.@.@.@.@.@.@.@.@.+",
"@.+@###@@$$$$$$$$##@$.@.@.@.@.@.@.@.@.@.@.@.@.@+",
".+###@$$$+.+.+.+.$$$.@.@.@.@.@.@.@.@.@.@.@.@.@. ",
"+##@$$+.+.+.+.+.+.+.+.+.+.+.+.+.+.+.+.+.+.+.+.+ ",
"+#+$.@.@.@.@.@.@.@.@.@.@.@.@.@.@.@.@.@.@.@.@.@+ ",
"+$$.+.+.+.+.+.+.+.+.+.+.+.+.+.+.+.+.+.+.+.+.+.  ",
".@.@.@.@.@.@.@.@.@.@.@.@.@.@.@.@.@.@.@.@.@.@.@  ",
"+.+.+.+.+.+.+.+.+.+.+.+.+.+.+.+.+.+.+.+.+.+.+.  ",
".@.@.@.@.@.@.@.@.@.@.@.@.@.@.@.@.@.@.@.@.@.@.@  ",
"+.+.+.+.+.+.+.+.+.+.+.+.+.+.+.+.+.+.+.+.+.+.+   ",
".+.+.+.+.+.+.+.@##############@+.+.+.+.+.+.+.   ",
"+.+.+.+.+.+.+@##################@.+.+.+.+.+.+   ",
".+.+.+.+.+.+.####################+.+.+.+.+.+    ",
"$.$.$.$.$.$.@####################@$.$.$.$.$.    ",
".+.+.+.+.+.+#####+.+.+.+.+.+.#####.+.+.+.+.$    ",
"$.$.$.$.$.$.####$.$.$.$.$.$.$.####$.$.$.$.$+    ",
".+.+.+.+.+.+####.+.+.+.+.+.+.+####.+.+.+.+.     ",
"$.$.$.$.$.$.####$.$.$.$.$.$.$.####$.$.$.$.$     ",
".$.$.$.$.$.$####.$.$.$.$.$.$.$####.$.$.$.$.     ",
"$.$.$.$.$.$.####$.$.$.$.$.$.$.####$.$.$.$.$     ",
".$.$.$.$.$.$####.$.$.$.$.$.$.$####.$.$.$.$.     ",
"$.$.$.$.$.$.####$.$.$.$.$.$.$.####$.$.$.$.$     ",
".$.$.$.$.$.$####.$.$.$.$.$.$.$####.$.$.$.$.     ",
"$.$.$.$.$.$.####$.$.$.$.$.$.$.####$.$.$.$.$     ",
".$.$.$.$.$.$#####$.$.$.$.$.$.#####.$.$.$.$.     ",
"$.$.$.$.$.$.@####################@$.$.$.$.$     ",
".$.$.$.$.$.$.####################$.$.$.$.$.     ",
"$.$.$.$.$.$.$@##################@.$.$.$.$.$     ",
".$.$.$.$.$.$.$.@##############@$.$.$.$.$.$.     ",
"$.$.$.$.$.$.$.$.$.$.$.$.$.$.$.$.$.$.$.$.$.$     ",
".$.$.$.$.$.$.$.$.$.$.$.$.$.$.$.$.$.$.$.$.$.$    ",
"$.$.$.$.$.$.$.$.$.$.$.$.$.$.$.$.$.$.$.$.$.$.    ",
"............................................    ",
"............................................@   ",
".............................................   "};
