/* XPM */
static char * mozilla_xpm[] = {
"48 48 748 2",
"  	c None",
". 	c #454545",
"+ 	c #2C2C2C",
"@ 	c #262626",
"# 	c #3C3C3C",
"$ 	c #303030",
"% 	c #070707",
"& 	c #000000",
"* 	c #030304",
"= 	c #5F5E5F",
"- 	c #0F0F0F",
"; 	c #030102",
"> 	c #0B0402",
", 	c #180705",
"' 	c #230A07",
") 	c #1E0905",
"! 	c #120605",
"~ 	c #080302",
"{ 	c #1E1D1E",
"] 	c #3D3D3D",
"^ 	c #393939",
"/ 	c #212221",
"( 	c #121213",
"_ 	c #404040",
": 	c #252525",
"< 	c #060506",
"[ 	c #0C0404",
"} 	c #3B130D",
"| 	c #8B2C1D",
"1 	c #C9412A",
"2 	c #E04B32",
"3 	c #D9482F",
"4 	c #B13926",
"5 	c #692216",
"6 	c #300E0A",
"7 	c #100705",
"8 	c #000001",
"9 	c #0C0303",
"0 	c #1A0907",
"a 	c #240C08",
"b 	c #1A0705",
"c 	c #0D0B0D",
"d 	c #323233",
"e 	c #1F1E1F",
"f 	c #000101",
"g 	c #160706",
"h 	c #7A281B",
"i 	c #DE492F",
"j 	c #F64E33",
"k 	c #F34D32",
"l 	c #EF4C31",
"m 	c #EE4D31",
"n 	c #F24D32",
"o 	c #F54F32",
"p 	c #DD4931",
"q 	c #551C15",
"r 	c #070302",
"s 	c #1B0907",
"t 	c #3F140D",
"u 	c #A23524",
"v 	c #B13B27",
"w 	c #8E3021",
"x 	c #190705",
"y 	c #0E1212",
"z 	c #1C1C1C",
"A 	c #000002",
"B 	c #1E0909",
"C 	c #953121",
"D 	c #E94B30",
"E 	c #F34D31",
"F 	c #E4482E",
"G 	c #CA412A",
"H 	c #AF3925",
"I 	c #9E3523",
"J 	c #C6402A",
"K 	c #EB4B2F",
"L 	c #D2442C",
"M 	c #40120E",
"N 	c #682116",
"O 	c #AA3824",
"P 	c #C6432D",
"Q 	c #963321",
"R 	c #40150E",
"S 	c #2E100D",
"T 	c #30120F",
"U 	c #060809",
"V 	c #242425",
"W 	c #171717",
"X 	c #1E0A07",
"Y 	c #9C3322",
"Z 	c #EF4C32",
"` 	c #F14C31",
" .	c #E54930",
"..	c #8A2D1E",
"+.	c #2F0F09",
"@.	c #090102",
"#.	c #260906",
"$.	c #9A301E",
"%.	c #EC4A30",
"&.	c #CB412A",
"*.	c #BC3E29",
"=.	c #CE442D",
"-.	c #9E3422",
";.	c #3C130E",
">.	c #0E0606",
",.	c #1D1D1D",
"'.	c #1B1B1B",
").	c #000102",
"!.	c #110504",
"~.	c #8A2D1D",
"{.	c #EC4C30",
"].	c #F04B30",
"^.	c #F34E32",
"/.	c #952F1F",
"(.	c #110605",
"_.	c #35100D",
":.	c #BB3D27",
"<.	c #EF4D31",
"[.	c #E0482F",
"}.	c #9E3320",
"|.	c #662117",
"1.	c #31110C",
"2.	c #010001",
"3.	c #431610",
"4.	c #672217",
"5.	c #2B0E0B",
"6.	c #000100",
"7.	c #1E1E1E",
"8.	c #191919",
"9.	c #010202",
"0.	c #501A13",
"a.	c #DB482E",
"b.	c #F14D31",
"c.	c #EF4B30",
"d.	c #D4442D",
"e.	c #481710",
"f.	c #0E0504",
"g.	c #963220",
"h.	c #EE4B30",
"i.	c #EE4C30",
"j.	c #CA4129",
"k.	c #5F1D13",
"l.	c #280C0A",
"m.	c #220D0A",
"n.	c #070303",
"o.	c #3A130D",
"p.	c #B93E29",
"q.	c #59231C",
"r.	c #161213",
"s.	c #010100",
"t.	c #181817",
"u.	c #010101",
"v.	c #040203",
"w.	c #5B1E15",
"x.	c #A23522",
"y.	c #BD3C26",
"z.	c #F04C32",
"A.	c #A63422",
"B.	c #8C2E1E",
"C.	c #531B12",
"D.	c #050102",
"E.	c #B53C26",
"F.	c #EE4C31",
"G.	c #AC3623",
"H.	c #B03A27",
"I.	c #C23F29",
"J.	c #32100C",
"K.	c #5F2017",
"L.	c #B63C28",
"M.	c #0C1618",
"N.	c #434645",
"O.	c #010000",
"P.	c #0F0605",
"Q.	c #150808",
"R.	c #020607",
"S.	c #1F1F1F",
"T.	c #070404",
"U.	c #170907",
"V.	c #42140D",
"W.	c #AF3624",
"X.	c #EF4B31",
"Y.	c #CD4029",
"Z.	c #EA4B30",
"`.	c #AC3825",
" +	c #180604",
".+	c #BE402A",
"++	c #EF4D32",
"@+	c #F04D33",
"#+	c #A33522",
"$+	c #3E130E",
"%+	c #AA3724",
"&+	c #F04D30",
"*+	c #8B2D1E",
"=+	c #40130E",
"-+	c #C1402D",
";+	c #221512",
">+	c #2C3132",
",+	c #252728",
"'+	c #3D2B29",
")+	c #4A1812",
"!+	c #190806",
"~+	c #000406",
"{+	c #1C1D1D",
"]+	c #232323",
"^+	c #812A1C",
"/+	c #EC4B31",
"(+	c #F04C31",
"_+	c #F14B31",
":+	c #E64A2F",
"<+	c #6B2014",
"[+	c #CB432B",
"}+	c #CF412A",
"|+	c #782619",
"1+	c #5A1F16",
"2+	c #0A0404",
"3+	c #38110C",
"4+	c #D1432C",
"5+	c #DA462E",
"6+	c #641F14",
"7+	c #C1402B",
"8+	c #792619",
"9+	c #31120D",
"0+	c #212122",
"a+	c #1A1C1D",
"b+	c #44150F",
"c+	c #76271B",
"d+	c #240B08",
"e+	c #121415",
"f+	c #2D2D2D",
"g+	c #242424",
"h+	c #141414",
"i+	c #37130D",
"j+	c #C33E28",
"k+	c #F44D32",
"l+	c #ED4B30",
"m+	c #ED4C30",
"n+	c #D6442B",
"o+	c #EC4C31",
"p+	c #D5452D",
"q+	c #39120D",
"r+	c #000003",
"s+	c #170707",
"t+	c #9C3323",
"u+	c #C93F28",
"v+	c #E94C31",
"w+	c #D6452E",
"x+	c #C23E28",
"y+	c #722419",
"z+	c #692318",
"A+	c #6A2217",
"B+	c #561B12",
"C+	c #5D1E14",
"D+	c #AE3925",
"E+	c #4C1811",
"F+	c #050001",
"G+	c #030709",
"H+	c #18191A",
"I+	c #2A2A2A",
"J+	c #292929",
"K+	c #323232",
"L+	c #4E4E4E",
"M+	c #202020",
"N+	c #632016",
"O+	c #E84B31",
"P+	c #ED4B31",
"Q+	c #F04E33",
"R+	c #5D1E13",
"S+	c #170908",
"T+	c #080303",
"U+	c #C2402C",
"V+	c #D6452D",
"W+	c #752416",
"X+	c #BA3C26",
"Y+	c #EA4C31",
"Z+	c #922F1F",
"`+	c #521B12",
" @	c #622017",
".@	c #8A2B1D",
"+@	c #BF3D27",
"@@	c #DB452C",
"#@	c #D0432B",
"$@	c #8D2E1F",
"%@	c #3B120D",
"&@	c #020809",
"*@	c #141616",
"=@	c #2B2B2B",
"-@	c #272727",
";@	c #040403",
">@	c #060203",
",@	c #81291C",
"'@	c #F64F33",
")@	c #EE4B31",
"!@	c #ED4C32",
"~@	c #652115",
"{@	c #4F1A11",
"]@	c #511B12",
"^@	c #461810",
"/@	c #2E100B",
"(@	c #732316",
"_@	c #E74A32",
":@	c #80291A",
"<@	c #290D0A",
"[@	c #EC4D33",
"}@	c #BA3B27",
"|@	c #B03826",
"1@	c #C63F2A",
"2@	c #EB4A30",
"3@	c #F14C30",
"4@	c #F24D31",
"5@	c #C84029",
"6@	c #8F2E1F",
"7@	c #41140E",
"8@	c #020000",
"9@	c #040809",
"0@	c #131414",
"a@	c #333333",
"b@	c #030303",
"c@	c #0F0606",
"d@	c #922F1E",
"e@	c #F74E32",
"f@	c #DD472F",
"g@	c #BC3B26",
"h@	c #C53F27",
"i@	c #CA4029",
"j@	c #D2442B",
"k@	c #D5442B",
"l@	c #D1432B",
"m@	c #C63F29",
"n@	c #C43E29",
"o@	c #CF422B",
"p@	c #421510",
"q@	c #220B09",
"r@	c #AB3724",
"s@	c #FC5134",
"t@	c #EA4B2F",
"u@	c #CD422A",
"v@	c #9D3322",
"w@	c #45160E",
"x@	c #090B0B",
"y@	c #050505",
"z@	c #080304",
"A@	c #240C0B",
"B@	c #963120",
"C@	c #F74F32",
"D@	c #F54F33",
"E@	c #8B2A1B",
"F@	c #B73B26",
"G@	c #EC4B30",
"H@	c #EB4A2F",
"I@	c #B23724",
"J@	c #BA3E2A",
"K@	c #120506",
"L@	c #A93624",
"M@	c #F75034",
"N@	c #ED4C31",
"O@	c #F04D31",
"P@	c #D3442B",
"Q@	c #160604",
"R@	c #070606",
"S@	c #282828",
"T@	c #040404",
"U@	c #32120E",
"V@	c #551C14",
"W@	c #8D2C1E",
"X@	c #F74F33",
"Y@	c #EF4D30",
"Z@	c #E64B30",
"`@	c #5B1C12",
" #	c #E84A30",
".#	c #722217",
"+#	c #E54B31",
"@#	c #5E1F16",
"##	c #2A0E0B",
"$#	c #F54F34",
"%#	c #EF4C30",
"&#	c #E44B31",
"*#	c #2D0E0A",
"=#	c #313131",
"-#	c #090909",
";#	c #353535",
">#	c #2E2E2E",
",#	c #8E3020",
"'#	c #902D1D",
")#	c #912D1C",
"!#	c #F34E31",
"~#	c #471710",
"{#	c #F04C30",
"]#	c #E24930",
"^#	c #40120B",
"/#	c #E24B32",
"(#	c #732719",
"_#	c #020204",
":#	c #8F2D1F",
"<#	c #F14E33",
"[#	c #ED4D2F",
"}#	c #F54E32",
"|#	c #912F1E",
"1#	c #555555",
"2#	c #060606",
"3#	c #434343",
"4#	c #290D09",
"5#	c #DC462C",
"6#	c #D04228",
"7#	c #F44E32",
"8#	c #B23925",
"9#	c #280B07",
"0#	c #B33B27",
"a#	c #1F0805",
"b#	c #A43624",
"c#	c #41150F",
"d#	c #7B271A",
"e#	c #E74B30",
"f#	c #ED4D33",
"g#	c #37100A",
"h#	c #2F2F2F",
"i#	c #5C5C5C",
"j#	c #0D0D0D",
"k#	c #200B08",
"l#	c #AA3623",
"m#	c #F54D31",
"n#	c #F54E31",
"o#	c #B83C26",
"p#	c #1B0A07",
"q#	c #812A1D",
"r#	c #E6492F",
"s#	c #DA472F",
"t#	c #130603",
"u#	c #2D100B",
"v#	c #0B0303",
"w#	c #010201",
"x#	c #0D0504",
"y#	c #652017",
"z#	c #DB472F",
"A#	c #F24F35",
"B#	c #3C120B",
"C#	c #441813",
"D#	c #100402",
"E#	c #242323",
"F#	c #121212",
"G#	c #080808",
"H#	c #8C2C1D",
"I#	c #F84F33",
"J#	c #C23F2A",
"K#	c #250C0B",
"L#	c #2B0D0A",
"M#	c #CE422C",
"N#	c #E24A30",
"O#	c #1D0907",
"P#	c #020201",
"Q#	c #010102",
"R#	c #040103",
"S#	c #4A1810",
"T#	c #C4402A",
"U#	c #842C1D",
"V#	c #0E0D0D",
"W#	c #222222",
"X#	c #111111",
"Y#	c #595959",
"Z#	c #525252",
"`#	c #631F15",
" $	c #F14F33",
".$	c #F64D32",
"+$	c #1F0B0A",
"@$	c #832B1E",
"#$	c #E5492F",
"$$	c #E8492F",
"%$	c #551B13",
"&$	c #030202",
"*$	c #020202",
"=$	c #0C0B0C",
"-$	c #0A0B0C",
";$	c #250A07",
">$	c #983220",
",$	c #E64B2F",
"'$	c #E74B31",
")$	c #B93A24",
"!$	c #591D15",
"~$	c #050303",
"{$	c #0A0A0A",
"]$	c #3B140F",
"^$	c #CD412B",
"/$	c #F74E33",
"($	c #8E2D1E",
"_$	c #1E0907",
":$	c #030203",
"<$	c #140604",
"[$	c #C03F2A",
"}$	c #EB4B31",
"|$	c #020001",
"1$	c #030201",
"2$	c #1B0908",
"3$	c #361711",
"4$	c #3B3B3B",
"5$	c #373638",
"6$	c #060303",
"7$	c #42150F",
"8$	c #A13523",
"9$	c #F14D32",
"0$	c #484848",
"a$	c #181818",
"b$	c #130606",
"c$	c #8E2D1D",
"d$	c #F54E33",
"e$	c #411713",
"f$	c #8E2F20",
"g$	c #4B1710",
"h$	c #662016",
"i$	c #DC472D",
"j$	c #ED4B32",
"k$	c #E54830",
"l$	c #682117",
"m$	c #200B0A",
"n$	c #8C2F1F",
"o$	c #280C08",
"p$	c #383837",
"q$	c #040607",
"r$	c #1B0805",
"s$	c #762719",
"t$	c #9B3221",
"u$	c #CF462F",
"v$	c #33100B",
"w$	c #0D0D0C",
"x$	c #4D1911",
"y$	c #DB462E",
"z$	c #CC412A",
"A$	c #350F0B",
"B$	c #A23423",
"C$	c #EC4C32",
"D$	c #D8452C",
"E$	c #982F1E",
"F$	c #BA3E29",
"G$	c #E0482E",
"H$	c #672216",
"I$	c #130605",
"J$	c #5B1D14",
"K$	c #BF412A",
"L$	c #4C170F",
"M$	c #0A0303",
"N$	c #020203",
"O$	c #040405",
"P$	c #3A3B3A",
"Q$	c #343534",
"R$	c #161716",
"S$	c #0D0E0E",
"T$	c #000202",
"U$	c #020505",
"V$	c #0E0404",
"W$	c #030001",
"X$	c #0C0C0C",
"Y$	c #494949",
"Z$	c #150705",
"`$	c #932F1F",
" %	c #F24E32",
".%	c #ED4B2F",
"+%	c #9A3221",
"@%	c #D3432C",
"#%	c #B73B27",
"$%	c #C7412A",
"%%	c #EE4B2F",
"&%	c #C23F28",
"*%	c #C53E27",
"=%	c #9E3220",
"-%	c #3D120C",
";%	c #070405",
">%	c #3E3E3E",
",%	c #1C1B1D",
"'%	c #AF3824",
")%	c #E84A2F",
"!%	c #EE4E32",
"~%	c #3F130D",
"{%	c #360F0D",
"]%	c #C03F2B",
"^%	c #F14C32",
"/%	c #E2482E",
"(%	c #E24A31",
"_%	c #B23A27",
":%	c #601F14",
"<%	c #2A0D09",
"[%	c #110604",
"}%	c #343434",
"|%	c #383838",
"1%	c #9A3120",
"2%	c #EE4E33",
"3%	c #B83A24",
"4%	c #E4472E",
"5%	c #B43B27",
"6%	c #200908",
"7%	c #D5442C",
"8%	c #E5492E",
"9%	c #DE462D",
"0%	c #CF422C",
"a%	c #BB3C29",
"b%	c #993221",
"c%	c #1F0806",
"d%	c #902F1F",
"e%	c #DD472E",
"f%	c #DB482F",
"g%	c #9E3322",
"h%	c #120504",
"i%	c #1A1A1A",
"j%	c #F34E33",
"k%	c #652114",
"l%	c #802A1B",
"m%	c #662116",
"n%	c #2F0F0B",
"o%	c #0B0201",
"p%	c #060102",
"q%	c #9B3222",
"r%	c #CC422B",
"s%	c #E74A30",
"t%	c #D4472E",
"u%	c #0A0B0A",
"v%	c #0E0E0E",
"w%	c #373737",
"x%	c #464646",
"y%	c #3C140D",
"z%	c #C54029",
"A%	c #F44E31",
"B%	c #D5462E",
"C%	c #330F0A",
"D%	c #090303",
"E%	c #070808",
"F%	c #0B0B0D",
"G%	c #0F0F10",
"H%	c #0E0F0E",
"I%	c #000404",
"J%	c #6A2218",
"K%	c #0D0404",
"L%	c #0B0B0C",
"M%	c #414141",
"N%	c #0E0E0F",
"O%	c #702417",
"P%	c #F14E31",
"Q%	c #C43F2A",
"R%	c #481810",
"S%	c #010103",
"T%	c #161717",
"U%	c #111415",
"V%	c #040A0C",
"W%	c #04080A",
"X%	c #141514",
"Y%	c #414140",
"Z%	c #4D4D4D",
"`%	c #171819",
" &	c #0B0202",
".&	c #FA5236",
"+&	c #EB4C31",
"@&	c #EB4B30",
"#&	c #ED4A30",
"$&	c #C53F2A",
"%&	c #551E16",
"&&	c #4B4B4A",
"*&	c #0D0505",
"=&	c #8E2E1F",
"-&	c #902E1E",
";&	c #D0422B",
">&	c #D0422C",
",&	c #36100D",
"'&	c #150504",
")&	c #6F2216",
"!&	c #D5432C",
"~&	c #692016",
"{&	c #210B08",
"]&	c #4D1B15",
"^&	c #101010",
"/&	c #040202",
"(&	c #933121",
"_&	c #D8462E",
":&	c #DE472C",
"<&	c #EF4E31",
"[&	c #671F14",
"}&	c #AB3725",
"|&	c #78291D",
"1&	c #020303",
"2&	c #1D0C0B",
"3&	c #68241A",
"4&	c #9A3020",
"5&	c #9F3320",
"6&	c #43150F",
"7&	c #010203",
"8&	c #131314",
"9&	c #150605",
"0&	c #431710",
"a&	c #5D1D15",
"b&	c #9D3220",
"c&	c #DA462C",
"d&	c #F24C32",
"e&	c #BC3D29",
"f&	c #39110C",
"g&	c #7D281B",
"h&	c #D4462F",
"i&	c #250C08",
"j&	c #08090A",
"k&	c #383738",
"l&	c #0B0C0D",
"m&	c #882D1F",
"n&	c #EE4C32",
"o&	c #672115",
"p&	c #471813",
"q&	c #090403",
"r&	c #1E1E1F",
"s&	c #292A2B",
"t&	c #0D0B0A",
"u&	c #4D1811",
"v&	c #CA412C",
"w&	c #EE4D30",
"x&	c #E5482E",
"y&	c #F14E32",
"z&	c #37110C",
"A&	c #282A2A",
"B&	c #0B0809",
"C&	c #3C110C",
"D&	c #A13120",
"E&	c #ED4E31",
"F&	c #120505",
"G&	c #020302",
"H&	c #363636",
"I&	c #2E3030",
"J&	c #0D0C0C",
"K&	c #1E0805",
"L&	c #7C281A",
"M&	c #DA472E",
"N&	c #F04E31",
"O&	c #672116",
"P&	c #AD3A28",
"Q&	c #0A0304",
"R&	c #030204",
"S&	c #111212",
"T&	c #070000",
"U&	c #32100B",
"V&	c #872B1D",
"W&	c #D3452D",
"X&	c #C34029",
"Y&	c #1A0908",
"Z&	c #2D2E2E",
"`&	c #090808",
" *	c #080100",
".*	c #200906",
"+*	c #4B1810",
"@*	c #AC3725",
"#*	c #421612",
"$*	c #363737",
"%*	c #0A0A0B",
"&*	c #040000",
"**	c #080201",
"=*	c #0B0403",
"-*	c #515252",
";*	c #29292A",
"                                                                                                ",
"                                  . + @ @ #                                                     ",
"                              $ % & & & & & * $ =                                               ",
"                          # - & ; > , ' ) ! ~ & & { ] ^ / & & ( _                               ",
"                        : < & [ } | 1 2 3 4 5 6 7 8 & & 9 0 a b c d                             ",
"                      e f & g h i j k l m n o p q r s t h u v w x y                             ",
"                    z & A B C D E F G H I J K L M N O P Q R , S T U V                           ",
"                  W & f X Y Z `  ...+.@.#.$.%.&.*.=.-.;.& >.>.8 & & ,.                          ",
"                '.& ).!.~.{.].^./.(.8 _.:.<.[.}.|.1.2.; 3.4.5.8 6.& 7.                          ",
"              8.& 9.8 0.a.b.c.d.e.f.& g.h.i.j.k.l.m.n.o.p.q.r.& s.& t.                          ",
"            '.& u.).v.w.x.y.z.A.B.C.D.E.F.l G.H.I.H J.K.L.M.N.O.P.Q.R.S.                        ",
"          z & u.u.u.T.U.V.W.X.Y.Z.`. +.+++@+#+$+%+&+*+=+-+;+>+,+'+)+!+~+{+                      ",
"        ]+& & & u.u.).n.^+/+c.(+_+:+<+[+}+|+1+2+3+4+5+6+7+8+9+0+a+b+c+d+A e+f+                  ",
"      g+& u.h+7.& & & i+j+k+l+m+m+b.n+o+p+q+r+s+t+u+v+w+x+y+z+A+B+C+`.D+E+F+G+H+I+              ",
"    J+h+: K+L+M+& 2.& N+O+X.P+l+l+c.Q+%+R+S+A T+U+V+W+X+Y+Z+`+ @.@+@@@b.#@$@%@& &@*@=@          ",
"    _       -@;@& f >@,@'@X.)@P+(+!@A.~@{@]@^@/@(@_@:@<@#+[@}@|@1@2@3@h.4@Z.5@6@7@8@9@0@a@      ",
"          M+b@& 8 ).c@d@e@h.h.c.f@g@h@i@j@k@l@m@n@P+o@p@q@r@s@b.(+h.h.h.h.)@n t@u@v@w@& x@:     ",
"        @ y@& & & z@A@B@C@i.m+D@E@F@G@b.&+(+(+4@X.H@I@J@K@<@L@M@i.i.)@h.i.l+N@F.O@G@P@*+Q@R@#   ",
"      S@T@& & u.2.U@V@W@X@i.Y@Z@`@+@(+P+)@h.h.h.h. #.#+#@#8 ###+$#)@l+l+h.F.%#%#h.c.` &#*#O.=#  ",
"    ] u.-#;#>#& s ,#'#)#^.%#!#I.~#+@{#P+h.h.h.h.h.]#^#/#(#8 _#q@:#<#{#[#m+h.h.h.h.h.}#|#(.u.S.  ",
"  1#2#a@  3#% & 4#F@5#6#l+i.7#8#9#0#<.l+l h.h.h.h.a.a#b#c#& & u.g d#e#(+m+h.h.h.h.c.f#g#).8 ,.  ",
"  h#i#    j#& & k#l#m#l+h.h.n#o#p#q#r#)@i.h.h.h.h.s#t#u#v#).u.u.w#x#y#z#E h.h.i.h.{#A#B#C#D#E#  ",
"        F#u.G#& !.H#I#)@h.h.E J#K#L#M#i.i.h.h.h.h.N#O#9.P#Q#u.u.& A R#S#T#b.F.h.m+m+!#B@U#7@V#  ",
"      W#X#Y#Z#& & `# $)@h.)@.$%++$& @$#$%#h.h.h.h.$$%$A Q#&$*$u.& u.=$-$;$>$,$(+i.l+h.'$)$!$~$  ",
"    # =@    {$2.& ]$^$4@F.h./$($_$:$<$[$h.h.h.h.h.}$`.|$1$2$3$& & y@4$5$& 6$7$8$s#Z.2@K 9$%$;   ",
"    0$    a$& *$8 b$c$d$h.F.C@| e$f$g$h$i$j$h.h.h.P+k$l$8 m$n$o$f u.& ( p$: q$).r$g$s$t$u$v$w$  ",
"        ^ & y@% :$& x$y$b.m+&+z$A$B$C$D$E$F$Z.m+m+i.i.G$H$I$J$K$L$M$N$O$& P$Q$R$S$T$U$T$V$W$=#  ",
"        X$X$4$Y$& & Z$`$ %m+.%}#+%l$@%E #%A$$%/+h.m+P+%%)@&%t$*%Y+=%-%! ;%& ]+W#1#W >%,%( b@    ",
"      $ W     h+& u.& ~#o@b.m+l+D@E@'%)%!%~%{%]%D b.i.%#<.^%Z /%G $%(%_%:%<%[%8@F#-#- }%I+X#    ",
"      |%    K+8 T@Q#8 !.1%X@i.h.h.2%3%4%` 5%f.6%-.7%8%9%0%a%b%N+d+c%d%e%<#f%g%C.h%u.& & & $     ",
"            i%]+G#O.8 ! t$'@i.h.i.h.Z l+m+j%k%r+A 3.l%m%n%o%& & & 8 p%e.q%r%s%t%3.O.u%- v%      ",
"          |%w%x%& 2.& y%z%A%h.h.h.h.l+l+m+X.B%C%D%8 & & & & E%X#F%G%H%I%& 6 J%g$K%L%a@          ",
"          M%  W h+N%& O%!@%#i.h.h.i.m+i.m+h.P%Q%R%S%Q#8 & - S@      >%W#T%U%V%W%X%Y%            ",
"            Z%: _ `% &d%.&+&@&F.h.h.i.l )@#&O@$&%&u.& *$8.]               &&=#f+                ",
"                @ & *&w.=&-&;&(+h.h.h.%#F.i.>&,&& :$u.'.                                        ",
"                -@& w#& '&)&!&(+h.h.h.i.Y@b.~&{&]&b@j#                                          ",
"              f+^&8 /&y%(&_&l h.h.h.h.l :&<&[&}&|&1&S@                                          ",
"              : & 2&3&..4&i@G@h.h.h.h.n 5&`.L '@6&7&                                            ",
"                8&9&0&a&b&c&%#h.h.h.h.d&e&f&g&h&i&j&                                            ",
"                k&l&h%m&C$O@i.h.h.h.h.X.n&o&x#p&q&r&                                            ",
"                  s&t&u&v&}#%#l+m+w&c.x&y&_&z&7&N$a@                                            ",
"                    A&B&C&_%y&_+l+m+i.i$D&E&-+F&G&H&                                            ",
"                      I&J&K&L&M&7#` %%N&~&O&P&Q&R&                                              ",
"                        4$S&T&U&V&W& %I#X&r$Y&R&O$                                              ",
"                            Z&`& *.*+*,@@*#*/&O.]+                                              ",
"                                $*%*&***=*r Q#& 8.                                              ",
"                                    -*>%;*S@W#-@S@                                              ",
"                                                                                                "};
