/* XPM */
static char * panel_handle_xpm[] = {
"12 64 3 1",
" 	c None",
".	c #D1D1D2",
"+	c #4E4E4E",
"............",
"++++++++++++",
"............",
"++++++++++++",
"............",
"++++++++++++",
"............",
"++++++++++++",
"............",
"++++++++++++",
"............",
"++++++++++++",
"............",
"++++++++++++",
"............",
"++++++++++++",
"............",
"++++++++++++",
"............",
"++++++++++++",
"............",
"++++++++++++",
"............",
"++++++++++++",
"............",
"++++++++++++",
"............",
"++++++++++++",
"............",
"++++++++++++",
"............",
"++++++++++++",
"............",
"++++++++++++",
"............",
"++++++++++++",
"............",
"++++++++++++",
"............",
"++++++++++++",
"............",
"++++++++++++",
"............",
"++++++++++++",
"............",
"++++++++++++",
"............",
"++++++++++++",
"............",
"++++++++++++",
"............",
"++++++++++++",
"............",
"++++++++++++",
"............",
"++++++++++++",
"............",
"++++++++++++",
"............",
"++++++++++++",
"............",
"++++++++++++",
"............",
"++++++++++++"};
