/* XPM */
static char * skype_xpm[] = {
"48 48 345 2",
"  	c None",
". 	c #1F212B",
"+ 	c #212630",
"@ 	c #3F666D",
"# 	c #5B989F",
"$ 	c #65AAB1",
"% 	c #68B0B7",
"& 	c #5B999F",
"* 	c #40686E",
"= 	c #212730",
"- 	c #355259",
"; 	c #66ADB4",
"> 	c #77CAD1",
", 	c #78CCD3",
"' 	c #67AEB5",
") 	c #36545B",
"! 	c #3C5F66",
"~ 	c #71BFC6",
"{ 	c #77CBD2",
"] 	c #6DB9C0",
"^ 	c #5A989E",
"/ 	c #4D7E85",
"( 	c #4A7980",
"_ 	c #4B7A80",
": 	c #6EBBC2",
"< 	c #72C0C7",
"[ 	c #3D6269",
"} 	c #2D434A",
"| 	c #6FBBC2",
"1 	c #72C2C9",
"2 	c #4E8087",
"3 	c #4C7E85",
"4 	c #6FBCC3",
"5 	c #71C0C7",
"6 	c #6FBDC4",
"7 	c #2F454D",
"8 	c #59959C",
"9 	c #70BEC5",
"0 	c #41676E",
"a 	c #69B1B8",
"b 	c #293840",
"c 	c #75C7CE",
"d 	c #426970",
"e 	c #72C1C8",
"f 	c #2A3B43",
"g 	c #3E646B",
"h 	c #5B989E",
"i 	c #60A1A8",
"j 	c #78CBD2",
"k 	c #40676E",
"l 	c #47737A",
"m 	c #76C8CF",
"n 	c #446C73",
"o 	c #76C9D0",
"p 	c #49767D",
"q 	c #70BDC4",
"r 	c #50858B",
"s 	c #4B7A81",
"t 	c #67ADB4",
"u 	c #58939A",
"v 	c #75C6CD",
"w 	c #68B0B6",
"x 	c #5FA1A7",
"y 	c #5FA0A7",
"z 	c #67ACB3",
"A 	c #74C5CD",
"B 	c #66ABB2",
"C 	c #5A959C",
"D 	c #5D9DA3",
"E 	c #366974",
"F 	c #2E899A",
"G 	c #32A0B3",
"H 	c #32A1B4",
"I 	c #2E8C9D",
"J 	c #336975",
"K 	c #50858C",
"L 	c #4E8289",
"M 	c #4C7F86",
"N 	c #51878E",
"O 	c #5E9FA5",
"P 	c #6DB8BF",
"Q 	c #2F8E9F",
"R 	c #38BED4",
"S 	c #39C1D7",
"T 	c #39BFD5",
"U 	c #35ABC0",
"V 	c #36AFC4",
"W 	c #36B2C6",
"X 	c #35ACC1",
"Y 	c #2C7E8E",
"Z 	c #3B666F",
"` 	c #61A2A9",
" .	c #579299",
"..	c #3094A6",
"+.	c #38BBD0",
"@.	c #2F8FA0",
"#.	c #417079",
"$.	c #6FBCC2",
"%.	c #74C5CC",
"&.	c #76C7CE",
"*.	c #2E6A78",
"=.	c #37B8CD",
"-.	c #36B0C5",
";.	c #37B6CB",
">.	c #35AFC4",
",.	c #346C78",
"'.	c #6BB4BB",
").	c #5C9AA1",
"!.	c #5E9EA5",
"~.	c #329DB0",
"{.	c #39C0D6",
"].	c #4C7781",
"^.	c #828B89",
"/.	c #9A9C98",
"(.	c #9B9D98",
"_.	c #868D8B",
":.	c #547780",
"<.	c #68AFB6",
"[.	c #4F838A",
"}.	c #36AEC3",
"|.	c #338B9C",
"1.	c #A6A6A0",
"2.	c #EEEDE0",
"3.	c #FDFCEE",
"4.	c #F1F0E3",
"5.	c #AFAFA7",
"6.	c #358494",
"7.	c #35AFC3",
"8.	c #417179",
"9.	c #4D8087",
"0.	c #34A9BD",
"a.	c #9D9E98",
"b.	c #FCFBED",
"c.	c #F7F6E9",
"d.	c #B8B8B0",
"e.	c #888F8C",
"f.	c #898F8C",
"g.	c #BEBEB5",
"h.	c #FBFAEC",
"i.	c #ABABA4",
"j.	c #33A2B6",
"k.	c #61A3A9",
"l.	c #64A8AF",
"m.	c #58949B",
"n.	c #33A6B9",
"o.	c #358595",
"p.	c #DFDED3",
"q.	c #B0B0A8",
"r.	c #3197A9",
"s.	c #38B9CF",
"t.	c #318A9B",
"u.	c #BEBDB4",
"v.	c #E4E3D7",
"w.	c #387F8E",
"x.	c #3C6770",
"y.	c #6CB6BD",
"z.	c #2C7C8C",
"A.	c #3E7B89",
"B.	c #E7E7DB",
"C.	c #A2A29C",
"D.	c #34A6B9",
"E.	c #456D78",
"F.	c #E5E4D8",
"G.	c #C6C5BB",
"H.	c #328A9B",
"I.	c #6EB9C0",
"J.	c #5C99A0",
"K.	c #65A9B0",
"L.	c #77C9D0",
"M.	c #375D67",
"N.	c #328C9D",
"O.	c #D8D7CC",
"P.	c #44707A",
"Q.	c #2E8C9E",
"R.	c #34AABE",
"S.	c #357987",
"T.	c #328494",
"U.	c #38BCD1",
"V.	c #329EB0",
"W.	c #60A3A9",
"X.	c #30626F",
"Y.	c #36B2C7",
"Z.	c #7D8583",
"`.	c #F5F4E7",
" +	c #F4F3E6",
".+	c #D5D5CA",
"++	c #ADADA6",
"@+	c #6F7C7F",
"#+	c #2F8898",
"$+	c #34AABD",
"%+	c #558D94",
"&+	c #2D6876",
"*+	c #33A3B7",
"=+	c #727E7F",
"-+	c #CFCFC4",
";+	c #F3F2E5",
">+	c #F8F7E9",
",+	c #D5D4C9",
"'+	c #64777B",
")+	c #35AEC3",
"!+	c #35ADC1",
"~+	c #51868D",
"{+	c #30626E",
"]+	c #38BED3",
"^+	c #37B5CA",
"/+	c #3090A1",
"(+	c #5A7980",
"_+	c #929692",
":+	c #C5C4BB",
"<+	c #EAE9DD",
"[+	c #E8E7DB",
"}+	c #4E757F",
"|+	c #558E95",
"1+	c #3E6870",
"2+	c #39BED4",
"3+	c #33A3B6",
"4+	c #55727A",
"5+	c #457480",
"6+	c #37B7CC",
"7+	c #36B3C8",
"8+	c #329BAE",
"9+	c #3E7784",
"0+	c #B1B1AA",
"a+	c #52898F",
"b+	c #57737B",
"c+	c #DADACF",
"d+	c #34808F",
"e+	c #377280",
"f+	c #EBEBDE",
"g+	c #B5B4AC",
"h+	c #34A7BA",
"i+	c #36B1C5",
"j+	c #4D8188",
"k+	c #6AB4BB",
"l+	c #2D8191",
"m+	c #5C787F",
"n+	c #FAF9EB",
"o+	c #878B87",
"p+	c #38BDD2",
"q+	c #426C76",
"r+	c #A7A79F",
"s+	c #36B1C6",
"t+	c #376772",
"u+	c #426F77",
"v+	c #34899A",
"w+	c #D0D0C5",
"x+	c #ECEBDF",
"y+	c #7D8483",
"z+	c #2F7B8A",
"A+	c #2C7F8F",
"B+	c #5E7378",
"C+	c #D0CFC5",
"D+	c #59757C",
"E+	c #38BDD3",
"F+	c #316977",
"G+	c #6BB5BC",
"H+	c #2F7583",
"I+	c #37BACF",
"J+	c #557279",
"K+	c #E0E0D4",
"L+	c #F9F8EB",
"M+	c #F0EFE2",
"N+	c #8F928E",
"O+	c #366772",
"P+	c #2F8798",
"Q+	c #457985",
"R+	c #A2A39D",
"S+	c #D1D1C7",
"T+	c #E9E8DB",
"U+	c #EAE9DC",
"V+	c #DCDBD0",
"W+	c #B7B6AE",
"X+	c #62777C",
"Y+	c #39C1D6",
"Z+	c #36B4C9",
"`+	c #497C83",
" @	c #579399",
".@	c #2F8293",
"+@	c #38BBD1",
"@@	c #2F92A3",
"#@	c #308394",
"$@	c #2E8D9E",
"%@	c #2D8393",
"&@	c #62A4AB",
"*@	c #336B77",
"=@	c #33A4B7",
"-@	c #316672",
";@	c #35A9BD",
">@	c #35AABE",
",@	c #38BAD0",
"'@	c #2F899A",
")@	c #4A7C83",
"!@	c #5A979D",
"~@	c #4E8288",
"{@	c #538A90",
"]@	c #32626D",
"^@	c #2B7B8B",
"/@	c #2B7281",
"(@	c #3F6B73",
"_@	c #62A5AB",
":@	c #59949B",
"<@	c #74C5CB",
"[@	c #6EBAC1",
"}@	c #538B91",
"|@	c #6CB7BE",
"1@	c #47747B",
"2@	c #436C73",
"3@	c #446D74",
"4@	c #49787F",
"5@	c #568F95",
"6@	c #67AEB4",
"7@	c #548C93",
"8@	c #426B71",
"9@	c #2C4148",
"0@	c #73C2C9",
"a@	c #41686F",
"b@	c #73C3CA",
"c@	c #2E444C",
"d@	c #60A1A7",
"e@	c #6AB4BA",
"f@	c #6AB2B9",
"g@	c #61A3AA",
"h@	c #334F55",
"i@	c #73C3C9",
"j@	c #58949A",
"k@	c #436B72",
"l@	c #6DB8BE",
"m@	c #73C4CB",
"n@	c #355158",
"o@	c #467278",
"p@	c #4E8188",
"q@	c #457177",
"r@	c #436A72",
"s@	c #4E8187",
"t@	c #64A9B0",
"u@	c #1F222C",
"v@	c #416970",
"w@	c #426C72",
"x@	c #20222C",
"y@	c #293941",
"z@	c #293B42",
"A@	c #222831",
"B@	c #26313A",
"C@	c #27323B",
"D@	c #222832",
"                                                                                                ",
"              . . . . . . . . . . . . . . . . . . . . . . . . . . . . . . . . . .               ",
"          . + @ # $ % % % % % % % % % % % % % % % % % % % % % % % % % % % % $ & * = .           ",
"        . - ; > , , , , , , , , , , , , , , , , , , , , , , , , , , , , , , , , > ' ) .         ",
"      . ! ~ , , { ] ^ / ( ( ( ( ( ( ( ( ( ( ( ( ( ( ( ( ( ( ( ( ( ( ( _ : , , , , , < [ .       ",
"    . } | , , 1 2 3 ; 4 5 5 5 5 5 5 5 5 5 5 5 5 5 5 5 5 5 5 5 5 5 5 5 < { , , , , , , 6 7 .     ",
"    . 8 , , 9 0 a , , , , , , , , , , , , , , , , , , , , , , , , , , , , , , , , , , , # .     ",
"    b 5 , c d : , , , , , , , , , , , , , , , , , , , , , , , , , , , , , , , , , , , , e f     ",
"  . g { , h i , , , , , , , , , , , , , , , , , , , , , , , , , , , , , , , , , , , , , j k .   ",
"  . l , m n o , , , , , , , , , , , , , , , , , , , , , , , , , , , , , , , , , , , , , , p .   ",
"  . p , q r , , , , , , , , , , , , , , , , , , , , , , , , , , , , , , , , , , , , , , , s .   ",
"  . p , t u , , , , , , , , , , v w x y z A , , , , , , , , , , , , , , , , , , , , , , , s .   ",
"  . p , B C , , , , , , , , > D E F G H I J K L M N O P > , , , , , , , , , , , , , , , , s .   ",
"  . p , B C , , , , , , , > M Q R S S S S T U V W X G Y Z ` > , , , , , , , , , , , , , , s .   ",
"  . p , B C , , , , , , ,  ...S S S S S S S S S S S S S +.@.#.$., , , , , , , , , , %.&., s .   ",
"  . p , B C , , , , , , 5 *.T S S S S S S S =.-.-.;.S S S S >.,.'., , , , , , , , , ).$ , s .   ",
"  . p , B C , , , , , , !.~.S S S S S {.H ].^./.(._.:.~.T S S ;.,.4 , , , , , , , , ` <., s .   ",
"  . p , B C , , , , , , [.}.S S S S {.|.1.2.3.3.3.3.4.5.6.T S S 7.8.> , , , , , , , : e , s .   ",
"  . p , B C , , , , , , 9.-.S S S S 0.a.b.c.d.e.f.g.h.3.i.j.S S S @.k., , , , , , , # l., s .   ",
"  . p , B C , , , , , , m.n.S S S S o.p.3.q.r.s.=.t.u.3.v.w.S S S +.x.> , , , , , , # l., s .   ",
"  . p , B C , , , , , , y.z.S S S S A.B.3.C.D.S S R E.F.G.H.S S S S z.I., , , , , , J.K., s .   ",
"  . p , B C , , , , , , L.M.T S S S N.O.3.4.a.P.Q.R.7.S.T.U.S S S S V.W., , , , , , 5 %., s .   ",
"  . p , B C , , , , , , o X.{.S S S Y.Z.`.3.b. +.+++@+#+=.S S S S S $+%+, , , , , , ).$ , s .   ",
"  . p , B C , , , , , , m &+{.S S S S *+=+-+;+3.3.3.>+,+'+)+S S S S !+~+, , , , , , # l., s .   ",
"  . p , B C , , , , , , o {+{.S S S S ]+^+/+(+_+:+<+b.3.[+}+R S S S 0.|+, , , , , , # l., s .   ",
"  . p , B C , , , , , , > 1+2+S S S 3+4+5+6+{.7+8+9+0+3.3.C.Y.S S S G x , , , , , , # l., s .   ",
"  . p , B C , , , , , , , a+R.S S ]+b+ +c+d+S S S {.e+f+3.g+h+S S S i+j+, , , , , , # l., s .   ",
"  . p , B C , , , , , , , k+l+S S 2+m+n+3.o+)+S S p+q+;+3.r+s+S S S S t+c , , , , , # l., s .   ",
"  . p , B C , , , , , , , , u+7+S S v+w+3.x+y+z+A+B+C+3.;+D+E+S S S S F+%., , , , , # l., s .   ",
"  . p , B C , , , , , , , , G+H+R S I+J+K+3.L+M+x+c.3. +N+*+S S S S S O+c , , , , , # l., s .   ",
"  . p , B C , , , , , , , , , ).P+T S ^+Q+R+S+T+U+V+W+X+j.Y+S S S S Z+`+, , , , , , # l., s .   ",
"  . p , B C , , , , , , , , , >  @.@+@S T !+@@P+#@$@*++@S S S S S S %@; , , , , , , # l., s .   ",
"  . p , B C , , , , , , , , , , { &@*@=@R S S S S S S S S S S S S ~.M { , , , , , , # l., s .   ",
"  . p , B C , , , , , , , , , , , , e |+-@F j.!+-.;@>@{.S S S ,@'@)@c , , , , , , , # l., s .   ",
"  . p , B C , , , , , , , , , , , , , , o % !@K ~@{@K ]@^@A+/@(@_@j , , , , , , , , # l., s .   ",
"  . p , z :@, , , , , , , , , , , , , , , , , , , , , o ~ P <@> , , , , , , , , , , !@$ , s .   ",
"  . p , [@a+, , , , , , , , , , , , , , , , , , , , , , , , , , , , , , , , , , , , }@|@, s .   ",
"  . 1@, v 2@{ , , , , , , , , , , , , , , , , , , , , , , , , , , , , , , , , , , { 3@v , 4@.   ",
"  . * j , 5@B , , , , , , , , , , , , , , , , , , , , , , , , , , , , , , , , , , 6@7@, , 8@.   ",
"    9@1 , 0@a@1 , , , , , , , , , , , , , , , , , , , , , , , , , , , , , , , , b@d 1 , b@c@    ",
"    . d@, , e@8@9 , , , , , , , , , , , , , , , , , , , , , , , , , , , , , , ~ 2@f@, , g@.     ",
"    . h@i@, , ] 2@j@| j , , , , , , , , , , , , , , , , , , , , , , , , j | 8 k@l@, , m@n@.     ",
"      . o@c , , o $ p@q@r@r@r@r@r@r@r@r@r@r@r@r@r@r@r@r@r@r@r@r@r@r@r@r@q@s@t@o , , c 1@.       ",
"        u@v@[@, , , , > m c c c c c c c c c c c c c c c c c c c c c c m > , , , , : w@x@        ",
"          . y@2 $ 9 5 5 5 5 5 5 5 5 5 5 5 5 5 5 5 5 5 5 5 5 5 5 5 5 5 5 5 5 9 B ~@z@.           ",
"              . . A@B@C@C@C@C@C@C@C@C@C@C@C@C@C@C@C@C@C@C@C@C@C@C@C@C@C@C@B@D@. .               ",
"                                                                                                ",
"                                                                                                "};
