/* XPM */
static char * telegram_xpm[] = {
"48 48 298 2",
"  	c None",
". 	c #1F212B",
"+ 	c #1F242E",
"@ 	c #22444F",
"# 	c #286674",
"$ 	c #2D8697",
"% 	c #3094A6",
"& 	c #33A2B6",
"* 	c #34AABE",
"= 	c #32A2B5",
"- 	c #22434F",
"; 	c #22414D",
"> 	c #2B7D8D",
", 	c #34A8BC",
"' 	c #38BCD2",
") 	c #39C2D8",
"! 	c #22414C",
"~ 	c #234651",
"{ 	c #2F92A4",
"] 	c #37BACF",
"^ 	c #37B6CB",
"/ 	c #329FB2",
"( 	c #2D8798",
"_ 	c #2A7483",
": 	c #2A7382",
"< 	c #2A7787",
"[ 	c #2A7786",
"} 	c #2B7484",
"| 	c #2D8899",
"1 	c #32A0B3",
"2 	c #37B7CC",
"3 	c #202D37",
"4 	c #2D8595",
"5 	c #38BDD2",
"6 	c #319AAC",
"7 	c #29707F",
"8 	c #2C7F8F",
"9 	c #319DAF",
"0 	c #36B4C8",
"a 	c #38BBD0",
"b 	c #38BFD4",
"c 	c #39C1D7",
"d 	c #38BED4",
"e 	c #36B3C8",
"f 	c #319EB0",
"g 	c #2B7686",
"h 	c #38BFD5",
"i 	c #244D59",
"j 	c #3095A7",
"k 	c #329DB0",
"l 	c #38BBD1",
"m 	c #38BDD3",
"n 	c #2F94A6",
"o 	c #244D58",
"p 	c #276371",
"q 	c #35ADC1",
"r 	c #2A7180",
"s 	c #32A1B4",
"t 	c #36B5CA",
"u 	c #35B0C5",
"v 	c #276471",
"w 	c #1F212C",
"x 	c #286B79",
"y 	c #38BCD1",
"z 	c #3098AA",
"A 	c #2B7B8A",
"B 	c #37B9CE",
"C 	c #2D8393",
"D 	c #286C7A",
"E 	c #39C0D6",
"F 	c #2E8D9E",
"G 	c #2F8E9F",
"H 	c #2F90A1",
"I 	c #39C0D5",
"J 	c #234D59",
"K 	c #3097A9",
"L 	c #2E8A9B",
"M 	c #3096A8",
"N 	c #2B7B8B",
"O 	c #2B7C8C",
"P 	c #34ACC0",
"Q 	c #2D8495",
"R 	c #297180",
"S 	c #37B9CF",
"T 	c #36B3C7",
"U 	c #35B1C5",
"V 	c #319BAD",
"W 	c #537B86",
"X 	c #ACAEB1",
"Y 	c #999C9E",
"Z 	c #329EB0",
"` 	c #2F92A3",
" .	c #2A7281",
"..	c #36B1C5",
"+.	c #36899A",
"@.	c #818D93",
"#.	c #C9CACB",
"$.	c #F6F6F6",
"%.	c #FFFFFF",
"&.	c #AFB1B3",
"*.	c #36B1C6",
"=.	c #33A0B3",
"-.	c #507D89",
";.	c #A7A9AB",
">.	c #E3E3E4",
",.	c #FEFEFE",
"'.	c #8F989D",
").	c #2A707F",
"!.	c #398E9F",
"~.	c #7B898F",
"{.	c #C5C6C7",
"].	c #F5F5F5",
"^.	c #F7F7F8",
"/.	c #D2D3D3",
"(.	c #F7F7F7",
"_.	c #FAFAFA",
":.	c #507783",
"<.	c #34A8BB",
"[.	c #38BED3",
"}.	c #33A4B7",
"|.	c #50808D",
"1.	c #9FA1A3",
"2.	c #E0E0E1",
"3.	c #D9D9DA",
"4.	c #85858D",
"5.	c #777785",
"6.	c #D3D3D4",
"7.	c #EBEBEC",
"8.	c #22434E",
"9.	c #329EB1",
"0.	c #36B4C9",
"a.	c #348E9F",
"b.	c #75868D",
"c.	c #C3C3C5",
"d.	c #F3F3F3",
"e.	c #F0F0F1",
"f.	c #A2A2A5",
"g.	c #9797A6",
"h.	c #A6A6B7",
"i.	c #A3A3A6",
"j.	c #D4D4D5",
"k.	c #319AAD",
"l.	c #276674",
"m.	c #33A5B9",
"n.	c #477E8B",
"o.	c #9DA1A4",
"p.	c #DEDEDF",
"q.	c #FCFCFC",
"r.	c #FBFBFB",
"s.	c #C6C6C7",
"t.	c #83848F",
"u.	c #C1C0D4",
"v.	c #AAAABB",
"w.	c #AAAAAC",
"x.	c #B4B6B7",
"y.	c #2D8696",
"z.	c #3095A6",
"A.	c #2A7383",
"B.	c #2F8EA0",
"C.	c #6F838A",
"D.	c #C1C1C3",
"E.	c #F1F1F1",
"F.	c #E2E3E3",
"G.	c #8E8F94",
"H.	c #AAA9BB",
"I.	c #D3D2E7",
"J.	c #A4A4B5",
"K.	c #B0B0B2",
"L.	c #959C9F",
"M.	c #38BAD0",
"N.	c #35ACC0",
"O.	c #3D7C8B",
"P.	c #9DA2A6",
"Q.	c #DBDBDC",
"R.	c #FAFAFB",
"S.	c #F6F6F7",
"T.	c #AEAEB0",
"U.	c #91919F",
"V.	c #CBCADE",
"W.	c #D6D5EA",
"X.	c #9E9EAF",
"Y.	c #B5B6B8",
"Z.	c #FDFDFD",
"`.	c #5B7B85",
" +	c #80878B",
".+	c #EFEFF0",
"++	c #D2D2D3",
"@+	c #85858E",
"#+	c #B9B8CB",
"$+	c #9A99A9",
"%+	c #BBBBBD",
"&+	c #EFEFEF",
"*+	c #3A8494",
"=+	c #537D88",
"-+	c #BBBCBE",
";+	c #E1E2E2",
">+	c #F9FAFA",
",+	c #ECECEC",
"'+	c #9C9DA0",
")+	c #9D9DAD",
"!+	c #D2D1E6",
"~+	c #D7D6EB",
"{+	c #D5D4E9",
"]+	c #9595A4",
"^+	c #C2C2C3",
"/+	c #D8D8D9",
"(+	c #3298A9",
"_+	c #34A9BD",
":+	c #2E8B9C",
"<+	c #557984",
"[+	c #9BA1A4",
"}+	c #C9C9CA",
"|+	c #BCBCBE",
"1+	c #858591",
"2+	c #C5C4D8",
"3+	c #D4D3E8",
"4+	c #B9BABC",
"5+	c #329FB1",
"6+	c #353F4A",
"7+	c #9594A5",
"8+	c #CAC9DD",
"9+	c #D3D2E6",
"0+	c #8C8C9A",
"a+	c #D1D1D2",
"b+	c #9B9FA2",
"c+	c #37BAD0",
"d+	c #437988",
"e+	c #B5B4C7",
"f+	c #81808F",
"g+	c #9696A6",
"h+	c #868693",
"i+	c #D6D6D7",
"j+	c #667F88",
"k+	c #ABABBD",
"l+	c #9B9AAB",
"m+	c #54555A",
"n+	c #E2E2E3",
"o+	c #F2F2F2",
"p+	c #458594",
"q+	c #319CAF",
"r+	c #276573",
"s+	c #22444E",
"t+	c #2C7E8E",
"u+	c #767D8B",
"v+	c #9393A2",
"w+	c #676770",
"x+	c #D4D4D4",
"y+	c #DCDCDD",
"z+	c #3395A6",
"A+	c #3F8292",
"B+	c #C9C9DD",
"C+	c #737481",
"D+	c #A8A7B7",
"E+	c #ADACBC",
"F+	c #61616B",
"G+	c #C0C1C2",
"H+	c #BEBEBF",
"I+	c #34A7BA",
"J+	c #9F9FAF",
"K+	c #70707C",
"L+	c #B0AFC0",
"M+	c #90909F",
"N+	c #397D8D",
"O+	c #368D9E",
"P+	c #ADAEB0",
"Q+	c #A1A2A4",
"R+	c #4D6270",
"S+	c #5D5D69",
"T+	c #8A8A98",
"U+	c #348394",
"V+	c #339EB1",
"W+	c #94999D",
"X+	c #6F828A",
"Y+	c #2D8898",
"Z+	c #3A404B",
"`+	c #318B9C",
" @	c #7A888E",
".@	c #EDEDEE",
"+@	c #4F8693",
"@@	c #2F91A3",
"#@	c #607C85",
"$@	c #DADADB",
"%@	c #3496A8",
"&@	c #234550",
"*@	c #2B7A8A",
"=@	c #2F93A5",
"-@	c #34ADC1",
";@	c #2C8494",
">@	c #202C36",
",@	c #2E8D9F",
"'@	c #202C37",
")@	c #234C58",
"!@	c #2E8C9D",
"~@	c #286B7A",
"{@	c #296F7E",
"]@	c #234551",
"^@	c #2F91A2",
"/@	c #1F232E",
"                                                                                                ",
"                                      . . . . . . . . . .                                       ",
"                                . + @ # $ % & * * = % $ # - + .                                 ",
"                          . . ; > , ' ) ) ) ) ) ) ) ) ) ) ' , > ! .                             ",
"                        . ~ { ] ) ) ^ / ( _ : < [ : } | 1 2 ) ) ] { ~ .                         ",
"                    . 3 4 ] ) 5 6 7 8 9 0 a b c c d ] e f 8 g h ) ) ] 4 3 .                     ",
"                  . i , c h j 7 k l ) ) ) ) ) ) ) ) ) ) ) ) m ) % n b c , o .                   ",
"                . p 2 ) q r k h ) ) ) ) ) ) ) ) ) ) ) ) ) ) ) ) h s t u ) 2 v w                 ",
"              . x y c z A B ) ) ) ) ) ) ) ) ) ) ) ) ) ) ) ) ) ) ) ) b C ] ) y D .               ",
"            . p y E F G E ) ) ) ) ) ) ) ) ) ) ) ) ) ) ) ) ) ) ) ) ) ) ) B H I y v .             ",
"          . J 2 c F j ) ) ) ) ) ) ) ) ) ) ) ) ) ) ) ) ) ) ) ) ) ) ) ) ) ) K L c 2 i .           ",
"          3 , ) z G ) ) ) ) ) ) ) ) ) ) ) ) ) ) ) ) ) ) ) ) ) ) ) ) ) ) ) ) H M ) , 3           ",
"        . 4 c q N E ) ) ) ) ) ) ) ) ) ) ) ) ) ) ) ) ) ) ) ) ) ) ) ) ) ) ) ) c O P c Q .         ",
"      . ~ ] h R S ) ) ) ) ) ) ) ) ) ) ) ) ) ) ) ) ) ) ) ) ) ) ) T U ) ) ) ) ) S R d ] ~         ",
"      . { ) j k ) ) ) ) ) ) ) ) ) ) ) ) ) ) ) ) ) ) ) ) ) 5 V W X Y U ) ) ) ) ) Z n ) ` .       ",
"      ! ] 5  .h ) ) ) ) ) ) ) ) ) ) ) ) ) ) ) ) ) ) c ..+.@.#.$.%.&.*.) ) ) ) ) h  .' ] ;       ",
"    . > ) 6 k ) ) ) ) ) ) ) ) ) ) ) ) ) ) ) ) ) m =.-.;.>.,.%.%.,.'.b ) ) ) ) ) ) k V ) > .     ",
"    + , ) ).l ) ) ) ) ) ) ) ) ) ) ) ) ) ) c T !.~.{.].%.^./.(.%._.:.) ) ) ) ) ) ) y  .) <.+     ",
"    @ ' ^ 8 ) ) ) ) ) ) ) ) ) ) ) ) ) [.}.|.1.2.,.%.,.3.4.5.6.%.7.Q ) ) ) ) ) ) ) ) 8 2 ' 8.    ",
"  . # ) 9.9 ) ) ) ) ) ) ) ) ) ) ) 0.a.b.c.d.%.%.%.e.f.g.h.i._.%.j.k.) ) ) ) ) ) ) ) k 1 ) l..   ",
"  . $ ) ( 0 ) ) ) ) ) ) ) ) b m.n.o.p.q.%.%.%.r.s.t.u.v.w.r.%.%.x.q ) ) ) ) ) ) ) ) e | ) y..   ",
"  . z.) A.a ) ) ) ) ) ) 2 B.C.D.E.%.%.%.%.%.F.G.H.I.J.K.q.%.%.%.L.d ) ) ) ) ) ) ) ) M._ ) % .   ",
"  . & ) : b ) ) ) ) N.O.P.Q.R.%.%.%.%.%.S.T.U.V.W.X.Y.Z.%.%.%.Z.`.) ) ) ) ) ) ) ) ) d : ) = .   ",
"  . * ) < c ) ) ) y  +.+,.%.%.%.%.%.Z.++@+#+W.W.$+%+,.%.%.%.%.&+*+) ) ) ) ) ) ) ) ) c [ ) * .   ",
"  . * ) < c ) ) ) b =+-+;+>+%.%.%.,+'+)+!+~+{+]+^+,.%.%.%.%.%./+(+) ) ) ) ) ) ) ) ) c [ ) * .   ",
"  . = ) : b ) ) ) ) E _+:+<+[+}+|+1+2+~+~+3+U.#.%.%.%.%.%.%.%.4+* ) ) ) ) ) ) ) ) ) d : ) = .   ",
"  . % ) _ M.) ) ) ) ) ) ) ) B 5+6+7+8+~+9+0+a+%.%.%.%.%.%.%.%.b+y ) ) ) ) ) ) ) ) ) c+_ ) % .   ",
"  . $ ) ( e ) ) ) ) ) ) ) ) ) c d+e+f+g+h+i+%.%.%.%.%.%.%.%.%.j+c ) ) ) ) ) ) ) ) ) e | ) y..   ",
"  . # ) / 9 ) ) ) ) ) ) ) ) ) ) k k+W.l+m+n+%.%.%.%.%.%.%.%.o+p+) ) ) ) ) ) ) ) ) ) q+/ ) r+.   ",
"    s+' ^ t+) ) ) ) ) ) ) ) ) ) a u+~+l+v+w+x+%.%.%.%.%.%.%.y+z+) ) ) ) ) ) ) ) ) ) t+2 y 8.    ",
"    + , ) 7 l ) ) ) ) ) ) ) ) ) ) A+B+C+D+E+F+G+,.%.%.%.%.%.H+I+) ) ) ) ) ) ) ) ) l : ) <.+     ",
"    . > ) 6 k ) ) ) ) ) ) ) ) ) ) m.J+K+L+M+N+O+P+q.%.%.%.%.Q+S ) ) ) ) ) ) ) ) ) 9 V ) > .     ",
"      ! ] 5 r h ) ) ) ) ) ) ) ) ) m R+S+T+U+h c V+W+$.%.%.%.X+h ) ) ) ) ) ) ) ) h r 5 ] !       ",
"      . { ) j 9 ) ) ) ) ) ) ) ) ) ) Y+Z+`+E ) ) ) *  @.@%.].+@) ) ) ) ) ) ) ) ) q+j ) @@.       ",
"        ~ ] h r B ) ) ) ) ) ) ) ) ) m u c ) ) ) ) ) 0.#@$@s.%@) ) ) ) ) ) ) ) B r h S &@        ",
"        . 4 c q *@E ) ) ) ) ) ) ) ) ) ) ) ) ) ) ) ) ) l =@K b ) ) ) ) ) ) ) E *@-@c ;@.         ",
"          >@, ) z ,@) ) ) ) ) ) ) ) ) ) ) ) ) ) ) ) ) ) ) ) ) ) ) ) ) ) ) ) ,@z ) , '@          ",
"          . )@2 c F j ) ) ) ) ) ) ) ) ) ) ) ) ) ) ) ) ) ) ) ) ) ) ) ) ) ) j F c 2 )@.           ",
"            . p l E F F E ) ) ) ) ) ) ) ) ) ) ) ) ) ) ) ) ) ) ) ) ) ) E ,@!@E y p .             ",
"              . x y c z *@B ) ) ) ) ) ) ) ) ) ) ) ) ) ) ) ) ) ) ) ) B *@z c l ~@.               ",
"                . p 2 ) q 7 9 h ) ) ) ) ) ) ) ) ) ) ) ) ) ) ) ) h q+r -@) 2 p .                 ",
"                  . o , c h j ).9 l ) ) ) ) ) ) ) ) ) ) ) ) l 9  .j h c , )@.                   ",
"                    . '@Q ] ) m k.{@t+9 e M.b c c d M.e q+t+_ V ' ) S ;@'@.                     ",
"                        . ]@^@] ) ) 2 / Y+_ : [ [ : _ | / 2 ) ) ] { ]@.                         ",
"                            . ! > <.' ) ) ) ) ) ) ) ) ) ) y <.> ! .                             ",
"                                . + 8.l.y.% = * * = % y.l.8./@.                                 ",
"                                      . . . . . . . . . .                                       ",
"                                                                                                "};
