/* XPM */
static char * text_editor_xpm[] = {
"48 48 13 1",
" 	c None",
".	c #636363",
"+	c #FFFFFF",
"@	c #BDBDBD",
"#	c #DEDEDE",
"$	c #212121",
"%	c #ADADAD",
"&	c #737373",
"*	c #424242",
"=	c #000000",
"-	c #FFFF00",
";	c #949494",
">	c #FF00FF",
"                                                ",
"                                                ",
"     ..............................             ",
"     .++++++++++++++++++++++++++++@             ",
"     .+##########################$@             ",
"     .+##########################$@             ",
"     .+##########################$@             ",
"     .+##########################$@             ",
"     .+###%#%#.####%###.%########$@             ",
"     .+##$.#$..#$$#.%$..%.#######$@             ",
"     .+##########################$@             ",
"     .+##########################$@             ",
"     .+##%##%##%#####%%##########$@             ",
"     .+##.$$$##.##$##$%.$##.$$###$@             ",
"     .+##########################$@             ",
"     .+##########################$@             ",
"     .+##.%.%####$#$#&###########$@             ",
"     .+##$%%.%$#$%&%$&###########$@             ",
"     .+############*$&&%#########$@             ",
"     .+#############*===%%#######$@             ",
"     .+#############*===%%%######$@             ",
"     .+#############*%=#--@%#####$@             ",
"     .+#############*.%%#--@%####$@             ",
"     .+##############..%##--@%###$@             ",
"     .+##############**.%##--@%##$@             ",
"     .+##############%**.%##--@%#$@             ",
"     .+##############%%*..%##--@%$@             ",
"     .+##############@%%**.%##--@%@             ",
"     .+###############@%%**.%##--@%             ",
"     .+################@%%**.%##--@%            ",
"     .+#################@%%**.%##--@%           ",
"     .+##################@%%**.%##--@%          ",
"     .+###################@%%*..%##--@%         ",
"     .+####################@%%**.%##--@%        ",
"     .+#####################@%%**.%##;;%@       ",
"     .+######################@%%*..%;##**;      ",
"     .+#######################@%$*..%#*#**@     ",
"     .+########################@$ ***..*##>*    ",
"     .+#########################$ &&**.;#>;*    ",
"     .+$$$$$$$$$$$$$$$$$$$$$$$$$$ &&***;>;>*    ",
"     .@@@@@@@@@@@@@@@@@@@@@@@@@@@@&&&**.;>***   ",
"                                   &&&.****.&&  ",
"                                    &&&****&&&  ",
"                                     &&&&&&&&&  ",
"                                      &&&&&&&   ",
"                                        & &     ",
"                                                ",
"                                                "};
