/* XPM */
static char * zoom_xpm[] = {
"48 48 175 2",
"  	c None",
". 	c #8D6C9F",
"+ 	c #8C83B3",
"@ 	c #89A9D6",
"# 	c #87BCE9",
"$ 	c #85C4F1",
"% 	c #85C5F2",
"& 	c #86BEEB",
"* 	c #88ADDA",
"= 	c #8B8AB9",
"- 	c #8D70A2",
"; 	c #89AAD7",
"> 	c #85C7F4",
", 	c #86C0ED",
"' 	c #85CBF8",
") 	c #85CAF7",
"! 	c #87BEEB",
"~ 	c #86BFEC",
"{ 	c #85C9F6",
"] 	c #86C2EF",
"^ 	c #86C6F3",
"/ 	c #86C5F2",
"( 	c #85C8F5",
"_ 	c #85CAF8",
": 	c #88B2DF",
"< 	c #8C75A6",
"[ 	c #8D6EA1",
"} 	c #82ADDB",
"| 	c #84CAF7",
"1 	c #89A1CF",
"2 	c #8D6EA0",
"3 	c #86C4F2",
"4 	c #87B6E3",
"5 	c #86C1EE",
"6 	c #8D6DA0",
"7 	c #89A6D4",
"8 	c #8C77A9",
"9 	c #8A94C2",
"0 	c #8B8FBD",
"a 	c #8C7EAE",
"b 	c #89A3D0",
"c 	c #87B4E1",
"d 	c #89A5D3",
"e 	c #8C77A8",
"f 	c #8B91C0",
"g 	c #83C8F5",
"h 	c #7FB2E0",
"i 	c #8C73A5",
"j 	c #8C76A8",
"k 	c #7BBEEB",
"l 	c #7CBFEC",
"m 	c #8798C6",
"n 	c #81BBE8",
"o 	c #7FC4F1",
"p 	c #85A9D6",
"q 	c #84ADDA",
"r 	c #82B8E5",
"s 	c #879DCA",
"t 	c #80C2EF",
"u 	c #8C72A4",
"v 	c #898BBB",
"w 	c #8A87B6",
"x 	c #879AC9",
"y 	c #81BCE9",
"z 	c #84ABD8",
"A 	c #82B9E6",
"B 	c #879DCB",
"C 	c #8D6FA2",
"D 	c #8988B8",
"E 	c #8985B5",
"F 	c #8A7FAF",
"G 	c #849DCB",
"H 	c #8C71A3",
"I 	c #7CB9E6",
"J 	c #81ABD8",
"K 	c #7FAEDC",
"L 	c #7DB7E4",
"M 	c #8C6FA2",
"N 	c #83A1CF",
"O 	c #7BBDEA",
"P 	c #8B7AAB",
"Q 	c #8692C0",
"R 	c #878DBC",
"S 	c #8A7FB0",
"T 	c #849ECC",
"U 	c #7CB9E7",
"V 	c #80ADDA",
"W 	c #80AEDC",
"X 	c #7DB8E5",
"Y 	c #8C70A2",
"Z 	c #83A0CE",
"` 	c #8790BE",
" .	c #878EBC",
"..	c #8596C4",
"+.	c #7CBBE9",
"@.	c #7CBAE7",
"#.	c #7CBBE8",
"$.	c #839FCD",
"%.	c #81A8D5",
"&.	c #7EB2DF",
"*.	c #80ADDB",
"=.	c #7FAEDB",
"-.	c #7EB3E0",
";.	c #81A9D6",
">.	c #80ACDA",
",.	c #7FB0DD",
"'.	c #8A7CAD",
").	c #849BC9",
"!.	c #82A3D1",
"~.	c #8C74A6",
"{.	c #8B79AA",
"].	c #9E84AA",
"^.	c #DFD4D7",
"/.	c #D5C8CF",
"(.	c #A58DAE",
"_.	c #7EB4E1",
":.	c #8986B5",
"<.	c #7CBCE9",
"[.	c #A790AF",
"}.	c #FFF8EE",
"|.	c #FBF3EB",
"1.	c #AB94B2",
"2.	c #849CCA",
"3.	c #8E6DA0",
"4.	c #C4B4C3",
"5.	c #B7A4BA",
"6.	c #DDD1D5",
"7.	c #8790BF",
"8.	c #8A7EAF",
"9.	c #E9DFDE",
"0.	c #BFAEC0",
"a.	c #E6DCDC",
"b.	c #9172A2",
"c.	c #CFC0CB",
"d.	c #FCF5EC",
"e.	c #F0E7E3",
"f.	c #CEC0CA",
"g.	c #9F85AA",
"h.	c #E4D9DA",
"i.	c #A68FAF",
"j.	c #BDABBE",
"k.	c #F7EFE8",
"l.	c #8A81B1",
"m.	c #9577A4",
"n.	c #FBF4EB",
"o.	c #8693C1",
"p.	c #888BBA",
"q.	c #987BA6",
"r.	c #DBCED3",
"s.	c #FEF7EE",
"t.	c #C7B8C6",
"u.	c #FEF7ED",
"v.	c #8B77A8",
"w.	c #B29DB7",
"x.	c #B09AB5",
"y.	c #AA94B2",
"z.	c #C9BAC7",
"A.	c #CDBEC9",
"B.	c #BEABBF",
"C.	c #8694C2",
"D.	c #8C70A3",
"E.	c #83A2CF",
"F.	c #80AEDB",
"G.	c #8A7DAE",
"H.	c #7CB8E5",
"I.	c #82A6D3",
"J.	c #7FB1DE",
"K.	c #83A0CD",
"L.	c #8695C3",
"M.	c #8D6D9F",
"N.	c #80ABD8",
"O.	c #8D6FA1",
"P.	c #81A7D5",
"Q.	c #8598C6",
"R.	c #8B78A9",
"                . . . . . . . . . . . . . . . . . . . . . . . . . . . . . . . .                 ",
"          . . . . . . . . . . . . . . . . . . . . . . . . . . . . . . . . . . . . . .           ",
"        . . + @ # $ % % % % % % % % % % % % % % % % % % % % % % % % % % % % % & * = . .         ",
"      . - ; > , ' ' ) ! ' ' ' ~ { ' ' ] ^ ' ' / ] ' ' ( ~ ' ' ) & _ ' ' ~ { ' ' ] ^ : < .       ",
"    . [ } | 1 2 3 ' : . 4 ' 5 6 7 ' ) 8 9 ' ' 0 a ' ' b [ / ' c . 4 ' ] 6 d ' ' e f g h i .     ",
"    . j k l m . n o p . q o r . s o t u v o o w j o o x . y o z . q o A . B o o C D k k E . .   ",
"  . . F k k G H I k J 6 K k L M N k O P Q k k R S k k T H U k V 6 W k X Y Z k k P ` k k  .. .   ",
"  . ..+.k k k @.k k k @.k k k @.k k k #.O k k O #.k k k @.k k k @.k k k @.k k k #.O k k O $..   ",
"  . %.k k k k k k k k k k k k k k k k k k k k k k k k k k k k k k k k k k k k k k k k k k &.. . ",
"  . *.k k k k k k k k k k k k k k k k k k k k k k k k k k k k k k k k k k k k k k k k k k I . . ",
"  . =.k k k k k k k k k k k k k k k k k k k k k k k k k k k k k k k k k k k k k k k k k k U . . ",
"  . =.k k k k k k k k k k k k k k k k k k k k k k k k k k k k k k k k k k k k k k k k k k U . . ",
"  . =.k k k k k k k k k k k k k k k k k k k k k k k k k k k k k k k k k k k k k k k k k k U . . ",
"  . =.k k k k k k k k k k k k k k k k k k k k k k k k k k k k k k k k k k k k k k k k k k U . . ",
"  . =.k k k k k -.;.;.;.;.;.;.;.;.;.;.;.;.;.;.;.;.;.;.;.>.@.k k k k k k k k X ,.k k k k k U . . ",
"  . =.k k k k k '.. . . . . . . . . . . . . . . . . . . . H ).O k k k k O !.~.[ O k k k k U . . ",
"  . =.k k k k k {.].^.^.^.^.^.^.^.^.^.^.^.^.^.^.^.^.^.^./.(.. ..k k k _.:.. . . <.k k k k U . . ",
"  . =.k k k k k {.[.}.}.}.}.}.}.}.}.}.}.}.}.}.}.}.}.}.}.}.|.1.6 _.O 2.M 3.4.5.. <.k k k k U . . ",
"  . =.k k k k k {.[.}.}.}.}.}.}.}.}.}.}.}.}.}.}.}.}.}.}.}.}.6.. 7.8.. (.9.}.0.. <.k k k k U . . ",
"  . =.k k k k k {.[.}.}.}.}.}.}.}.}.}.}.}.}.}.}.}.}.}.}.}.}.a.. . b.c.d.}.}.0.. <.k k k k U . . ",
"  . =.k k k k k {.[.}.}.}.}.}.}.}.}.}.}.}.}.}.}.}.}.}.}.}.}.a.. 1.e.}.}.}.}.0.. <.k k k k U . . ",
"  . =.k k k k k {.[.}.}.}.}.}.}.}.}.}.}.}.}.}.}.}.}.}.}.}.}.a.. f.}.}.}.}.}.0.. <.k k k k U . . ",
"  . =.k k k k k {.[.}.}.}.}.}.}.}.}.}.}.}.}.}.}.}.}.}.}.}.}.a.. f.}.}.}.}.}.0.. <.k k k k U . . ",
"  . =.k k k k k {.[.}.}.}.}.}.}.}.}.}.}.}.}.}.}.}.}.}.}.}.}.a.. f.}.}.}.}.}.0.. <.k k k k U . . ",
"  . =.k k k k k {.[.}.}.}.}.}.}.}.}.}.}.}.}.}.}.}.}.}.}.}.}.a.. f.}.}.}.}.}.0.. <.k k k k U . . ",
"  . =.k k k k k {.[.}.}.}.}.}.}.}.}.}.}.}.}.}.}.}.}.}.}.}.}.a.. f.}.}.}.}.}.0.. <.k k k k U . . ",
"  . =.k k k k k {.[.}.}.}.}.}.}.}.}.}.}.}.}.}.}.}.}.}.}.}.}.a.. f.}.}.}.}.}.0.. <.k k k k U . . ",
"  . =.k k k k k {.[.}.}.}.}.}.}.}.}.}.}.}.}.}.}.}.}.}.}.}.}.a.. g.h.}.}.}.}.0.. <.k k k k U . . ",
"  . =.k k k k k P i.}.}.}.}.}.}.}.}.}.}.}.}.}.}.}.}.}.}.}.}.a.. . . j.k.}.}.0.. <.k k k k U . . ",
"  . =.k k k k k l.m.n.}.}.}.}.}.}.}.}.}.}.}.}.}.}.}.}.}.}.}.a.. o.p.. q.r.s.0.. <.k k k k U . . ",
"  . =.k k k k k 2.. t.u.}.}.}.}.}.}.}.}.}.}.}.}.}.}.}.}.}.}.a.. 2.k %.v.. w.x.. <.k k k k U . . ",
"  . =.k k k k k #.l.. y.z.A.A.A.A.A.A.A.A.A.A.A.A.A.A.A.A.A.B.. 2.k k @.o.6 . . <.k k k k U . . ",
"  . =.k k k k k k @.C.D.. . . . . . . . . . . . . . . . . . . . E.k k k k F.G.u O k k k k U . . ",
"  . =.k k k k k k k k <._.h h h h h h h h h h h h h h h h h h -.k k k k k k <.X k k k k k U . . ",
"  . =.k k k k k k k k k k k k k k k k k k k k k k k k k k k k k k k k k k k k k k k k k k U . . ",
"  . =.k k k k k k k k k k k k k k k k k k k k k k k k k k k k k k k k k k k k k k k k k k U . . ",
"  . =.k k k k k k k k k k k k k k k k k k k k k k k k k k k k k k k k k k k k k k k k k k U . . ",
"  . =.k k k k k k k k k k k k k k k k k k k k k k k k k k k k k k k k k k k k k k k k k k U . . ",
"  . V k k k k k k k k k k k k k k k k k k k k k k k k k k k k k k k k k k k k k k k k k k H.. . ",
"  . I.k k k k k k k k k k k k k k k k k k k k k k k k k k k k k k k k k k k k k k k k k k J.. . ",
"  . C.k k k k k k k k k k k k k k k k k k k k k k k k k k k k k k k k k k k k k k k k k k K..   ",
"  . i @.k k k k k k k k k k k k k k k k k k k k k k k k k k k k k k k k k k k k k k k k O F .   ",
"    . L.k k k k k k k k k k k k k k k k k k k k k k k k k k k k k k k k k k k k k k k k N . .   ",
"    . M.N k k k k k k k k k k k k k k k k k k k k k k k k k k k k k k k k k k k k k k N.M .     ",
"      . M.L.@.k k k k k k k k k k k k k k k k k k k k k k k k k k k k k k k k k k <.G O..       ",
"        . . i C.I.V F.F.F.F.F.F.F.F.F.F.F.F.F.F.F.F.F.F.F.F.F.F.F.F.F.F.F.F.V P.Q.R.. .         ",
"            . . . . . . . . . . . . . . . . . . . . . . . . . . . . . . . . . . . .             ",
"                                                                                                "};
