/* XPM */
static char * wallcde04_xpm[] = {
"35 36 315 2",
"  	c #474F5A",
". 	c #777F8A",
"+ 	c #434D57",
"@ 	c #7A8490",
"# 	c #454F5B",
"$ 	c #757F8B",
"% 	c #434F5B",
"& 	c #75818F",
"* 	c #434D59",
"= 	c #74808C",
"- 	c #464E59",
"; 	c #737F8D",
"> 	c #454D58",
", 	c #78828E",
"' 	c #404853",
") 	c #7B8591",
"! 	c #424A55",
"~ 	c #778391",
"{ 	c #444C57",
"] 	c #798593",
"^ 	c #424A57",
"/ 	c #77818D",
"( 	c #49505A",
"_ 	c #787F89",
": 	c #484C57",
"< 	c #7A828D",
"[ 	c #444E5A",
"} 	c #737D89",
"| 	c #48525E",
"1 	c #76808C",
"2 	c #44505C",
"3 	c #76828E",
"4 	c #484F59",
"5 	c #738090",
"6 	c #4B4F58",
"7 	c #6F7F8F",
"8 	c #474E58",
"9 	c #72808D",
"0 	c #7E8894",
"a 	c #414852",
"b 	c #7C8999",
"c 	c #464A53",
"d 	c #6F7C8D",
"e 	c #464A55",
"f 	c #788494",
"g 	c #4B535E",
"h 	c #777F8C",
"i 	c #48505B",
"j 	c #4D5560",
"k 	c #6C7680",
"l 	c #79838F",
"m 	c #3E4854",
"n 	c #727F8F",
"o 	c #484D53",
"p 	c #708193",
"q 	c #4A4D54",
"r 	c #728292",
"s 	c #74808E",
"t 	c #474A53",
"u 	c #728395",
"v 	c #4E5158",
"w 	c #748494",
"x 	c #454952",
"y 	c #737C8B",
"z 	c #45515F",
"A 	c #424E5C",
"B 	c #47505F",
"C 	c #3B434E",
"D 	c #4C545F",
"E 	c #7A848E",
"F 	c #47515D",
"G 	c #768290",
"H 	c #484C55",
"I 	c #6F8092",
"J 	c #4C4D52",
"K 	c #6E8094",
"L 	c #727E8C",
"M 	c #4D515C",
"N 	c #748597",
"O 	c #46474C",
"P 	c #748599",
"Q 	c #43434B",
"R 	c #798696",
"S 	c #424C58",
"T 	c #454C56",
"U 	c #424B54",
"V 	c #49515C",
"W 	c #3D4550",
"X 	c #717B85",
"Y 	c #46505C",
"Z 	c #747E8A",
"` 	c #738393",
" .	c #6B7D91",
"..	c #4B4E55",
"+.	c #3F4955",
"@.	c #4E555F",
"#.	c #777E88",
"$.	c #444E58",
"%.	c #768393",
"&.	c #454B57",
"*.	c #6E7F91",
"=.	c #4C4F56",
"-.	c #758497",
";.	c #42424A",
">.	c #485462",
",.	c #464D57",
"'.	c #41454E",
").	c #7D818A",
"!.	c #434752",
"~.	c #4C535D",
"{.	c #414A53",
"].	c #3E4651",
"^.	c #767E89",
"/.	c #7C848F",
"(.	c #3C4856",
"_.	c #7A8798",
":.	c #494D56",
"<.	c #434B56",
"[.	c #4D535F",
"}.	c #404652",
"|.	c #505863",
"1.	c #424953",
"2.	c #4A515B",
"3.	c #78808B",
"4.	c #4A525D",
"5.	c #798595",
"6.	c #414A59",
"7.	c #778393",
"8.	c #7F8897",
"9.	c #434A54",
"0.	c #737B86",
"a.	c #767F8E",
"b.	c #404A56",
"c.	c #788492",
"d.	c #75818D",
"e.	c #7C8692",
"f.	c #414D5B",
"g.	c #3F4752",
"h.	c #7E8B9B",
"i.	c #718191",
"j.	c #788490",
"k.	c #717E8E",
"l.	c #444851",
"m.	c #768696",
"n.	c #7A8895",
"o.	c #6C7989",
"p.	c #50545D",
"q.	c #7F8C9C",
"r.	c #41444B",
"s.	c #50535A",
"t.	c #6A7B8D",
"u.	c #464B51",
"v.	c #768799",
"w.	c #42454C",
"x.	c #445161",
"y.	c #4D5258",
"z.	c #6D7E90",
"A.	c #4D5763",
"B.	c #6F7985",
"C.	c #4D5761",
"D.	c #7B8795",
"E.	c #535459",
"F.	c #6A7C90",
"G.	c #78899B",
"H.	c #4E4F54",
"I.	c #708296",
"J.	c #758595",
"K.	c #68798B",
"L.	c #474A51",
"M.	c #788898",
"N.	c #6D7985",
"O.	c #6F8195",
"P.	c #48494E",
"Q.	c #758698",
"R.	c #44474E",
"S.	c #697B8F",
"T.	c #515257",
"U.	c #465260",
"V.	c #414954",
"W.	c #77889A",
"X.	c #3F434C",
"Y.	c #434F5D",
"Z.	c #818D9B",
"`.	c #6E7A86",
" +	c #738496",
".+	c #464950",
"++	c #6E7B8B",
"@+	c #3D444E",
"#+	c #4F545A",
"$+	c #6D7A8A",
"%+	c #4A4F55",
"&+	c #788595",
"*+	c #414D59",
"=+	c #3D4753",
"-+	c #758292",
";+	c #4D515A",
">+	c #707D8D",
",+	c #4F5660",
"'+	c #798794",
")+	c #6E7E8E",
"!+	c #424F5F",
"~+	c #778592",
"{+	c #727E8A",
"]+	c #727C88",
"^+	c #77838F",
"/+	c #7A8694",
"(+	c #737F8B",
"_+	c #49535F",
":+	c #6E7A88",
"<+	c #474F5C",
"[+	c #48505D",
"}+	c #758191",
"|+	c #747C87",
"1+	c #48525C",
"2+	c #45515D",
"3+	c #4E5661",
"4+	c #6E7B8C",
"5+	c #4C505B",
"6+	c #778494",
"7+	c #79818C",
"8+	c #757D88",
"9+	c #717B87",
"0+	c #424E5A",
"a+	c #778089",
"b+	c #464F58",
"c+	c #454E57",
"d+	c #454D5A",
"e+	c #6D7A8B",
"f+	c #45484F",
"g+	c #748396",
"h+	c #77818B",
"i+	c #4B5561",
"j+	c #3E4E5E",
"k+	c #454954",
"l+	c #54555A",
"m+	c #6A7B8F",
"n+	c #4E4E56",
"o+	c #444A56",
"p+	c #7B858F",
"q+	c #7F838C",
"r+	c #4A4E57",
"s+	c #464E5B",
"t+	c #6B7C90",
"u+	c #4F5055",
"v+	c #3B4B5B",
"w+	c #708090",
"x+	c #728194",
"y+	c #494A4F",
"z+	c #464F5E",
"A+	c #4B525C",
"B+	c #454F59",
"C+	c #7C8089",
"D+	c #444B55",
"E+	c #748191",
"F+	c #484B52",
"G+	c #404751",
"H+	c #48515A",
"I+	c #424854",
"J+	c #747B85",
"K+	c #3C444F",
"L+	c #78818A",
"M+	c #434C5B",
"N+	c #515862",
"O+	c #3E424B",
"P+	c #444C59",
"Q+	c #474D59",
"R+	c #78808D",
"S+	c #707C8A",
"T+	c #4A5460",
"U+	c #717D8B",
"V+	c #4C5059",
"W+	c #768292",
"X+	c #494C53",
"Y+	c #414956",
"Z+	c #4F535C",
"`+	c #868A95",
" @	c #3F4551",
".@	c #474B56",
"+@	c #6A7A8A",
"@@	c #4B4E57",
"#@	c #4F5259",
"$@	c #3F4650",
"%@	c #4A505C",
"&@	c #4D5057",
"*@	c #718294",
"=@	c #707F92",
"-@	c #6D7989",
";@	c #4A4B50",
">@	c #47484D",
",@	c #707C8C",
"'@	c #4D545E",
")@	c #4E5460",
"!@	c #3A4450",
"~@	c #6F7887",
"{@	c #394A5C",
"]@	c #798A9E",
"^@	c #7A8A9A",
"/@	c #767E8B",
"(@	c #4B5360",
"_@	c #6F8094",
":@	c #7B8493",
"<@	c #79818E",
"[@	c #414B57",
"}@	c #707A86",
"|@	c #3B424C",
"1@	c #778699",
"2@	c #38495B",
"3@	c #727E8E",
"4@	c #4B4F5A",
"5@	c #7A828F",
"6@	c #444D5C",
"7@	c #757E8D",
"8@	c #464C58",
"9@	c #7E8691",
"0@	c #747E88",
"  . + @ # $ % & * = - ;   ; > , * = - ;   ; > , ' ) ! ~ { ] ^ / ( _ : ",
"- ' < [ } | 1 2 3 4 5 6 7 8 9 { 3 4 5 6 7 8 9 { 0 a b c d e f g h ^ > ",
"> i j k | l m 1 - n o p q r 8 s - n o p q r 8 s { n t u v w x y z A B ",
"' j C D E [ ) F G H I J K q r { G H I J K q r { L M N O P Q R ( S S 1 ",
"T U V - W X Y Z { r q K J I H G { r q K J I H G [ ` q  .J ` ..+.T @.T ",
"8 #.a > D j . $.s 8 r q p o n - s 8 r q p o n - %.&.*.=.-.;.>.,.'.).!.",
"8 ~.T {.].^.! /.{ 9 8 7 6 5 4 3 { 9 8 7 6 5 4 3 (._.T r c z :.<.[.}.|.",
"4 1.2.,.3.4./.! , > ;   ; - = * , > ;   ; - = * 5.6.7.! 8.9.0.( * # a.",
"i b.! c.' ~ * ~ * = - ;   ; > , S d.V & > G ' e.* = i f.g.~ ! ) 8 ,.( ",
"* 1.h.H i.2.5 * 3 4 5 6 7 8 9 { j.,.k.l.m.4 n.g.3 9.o.p.w T n.].. <.{ ",
"W q.r.*.s.t.T s - n o p q r 8 s   k.u.v.w.i.T ] ! x.y.z.q r 1.G A.B.C.",
"D.H z.E.F...m.<.G H I J K q r { G '.G.H.I.q J.].& 6 K.E.I.L.M.i N.% Y ",
"C ` v O.P.Q.c ~ { r q K J I H G > M.R.S.T.K.6 U.V.J.=.S.P.W.X.& Y.Z.`.",
"D.@.K.L. +.+++- s 8 r q p o n - ] @+J...z.#+$+  s 1.m..+Q.%+&+- ; *+[ ",
"=+-+4 r ;+>+,+1 { 9 8 7 6 5 4 3 - '+T )+6 !+,.d.i ~+a m.c ++8 {+| ]+) ",
"] [ L ! c.> } > , > ;   ; - = * Z   G <.& <.^+S $ { G <./+<.(+# } _++ ",
"* = - ;   ; > , F :+<+~ [+}+S ~   |+1+[ b./ 2+G * = - ;   ; > , A & ] ",
"3 4 5 6 7 8 9 { L 3+4+5+7 T 6+* 7+! 8+# e.| 9+0+3 4 5 6 7 8 9 { a+b+c+",
"- n o p q r 8 s d+e+p.p f+g+T ;   -   h+m Z i+l - n o p q r 8 s j+r i.",
"G H I J K q r { c.k+I l+m+n+&+o+{ ! D V.p+F B.* G H I J K q r { q+H r+",
"{ r q K J I H G s+w L.t+u+J..+S 8 b+! - - E [ l { r q K J I H G v+r w+",
"s 8 r q p o n - 7.8 x+n+i.y+z+;+T #.A+> V.! ^.B+s 8 r q p o n - C+H :.",
"{ 9 8 7 6 5 4 3 m %.D+E+F+B ..G+( a 4 H+g.D ! 3.{ 9 8 7 6 5 4 3 A s s ",
", > ;   ; - = * c.* c.I+F H D+q+D+2.9.J+|.K+D ! , > ;   ; - = * L+c+{.",
"* = - ;   ; > , M+D.{ B.N+W 6 e 6 O+2.T { P+Y , Q+R+&.a.D S+T+U+A & ] ",
"3 4 5 6 7 8 9 { & V.k.V+W+X+Y+Z+x `+,. @{ F 9+F ^ .@}+6 +@4 5 # a+b+c+",
"- n o p q r 8 s _+r @@p P.%.#@C ,.$@8 - - ) Y Z %@7.&@*@X+=@8 L j+r i.",
"G H I J K q r { -@1.v.;@u >@,@'@1.)@<.> R+!@e.# ~@r+{@y+]@v +@V q+H r+",
"{ r q K J I H G [+^@.+K J  +r+@ 4.g.  /@(@l # } i m.X+_@>@*@H :@v+r w+",
"s 8 r q p o n - ; G+ +X+v.t n <.<@[@/ [ 1 F }@F c.|@1@&@2@..7.I+C+H :.",
"{ 9 8 7 6 5 4 3 | %.4 w+a w+g & [ / F ]+* Z [ @ [@b a r V+3@4@5@A s s ",
", > ;   ; - = * } [ & s+}+* s 6@l +., i+} F l [@c.[@c.{ 7@Q+^ 8@L+c+{.",
"[ / F $ # } [ / [ / F $ # } [ / [ / F $ # } [ / [ / F $ # } [ / U 9@$ ",
"$ [ 1 * , # / # $ [ 1 * , # / # $ [ 1 * , # / # $ [ 1 * , # / # V - +.",
"Y } Y 1 # $ | $ Y } Y 1 # $ | $ Y } Y 1 # $ | $ Y } Y 1 # $ | $ > 0@) ",
"/ | } # 1 | ]+[ / | } # 1 | ]+[ / | } # 1 | ]+[ / | } # 1 | ]+[ 0 b.=+"};
