/* XPM */
static char * wallcde02_xpm[] = {
"32 80 13 1",
" 	c None",
".	c #6A92AE",
"+	c #5B82A0",
"@	c #5E86A4",
"#	c #567C9A",
"$	c #5A819F",
"%	c #628BA7",
"&	c #658DAA",
"*	c #678EAB",
"=	c #6990AD",
"-	c #5F87A4",
";	c #517997",
">	c #4E7593",
".................+@@@@@@#+......",
".................$+@@@@@$#......",
".................$$@@@@@@#%.....",
".................$$$@@@@@@@.....",
".................$$$+@@@%%$.....",
".................$$$$+@@&*#.....",
".................$$$$$@@=.$&....",
".................$$$$$+%..+%....",
".................$$$$$$*..@-....",
".................$$$$$-&=.-@....",
".................$$$$+&&*.%+....",
".................$$$+%&&&=&+....",
".................$$$%&&&&*&+....",
".................$$-&&&&&&&+....",
"................=$@&&&&&&&%+....",
"...............=#@&&&&&&&&@$....",
"...............#;&&&&&&&&&+$....",
"..............+;$&&&&&&&&&$+....",
".............@;$$&&&&&&&&&#@=...",
"............%;#$$&&&&&&&&&;%=...",
"...........=;#$$$&&&&&&&&-#&*...",
"...........$;$$$$&&&&&&&&$$&&...",
"..........-;$$$$$&&&&&&&&;%&&...",
".........*;#$$$$$&&&&&&&+#&&&=..",
".........+#$$$$$$&&&&&&&;@&&&=..",
"........&;$$$$$$$&&&&&&$#&&&&*..",
"........$#$$$$$$$&&&&&-;-&&&&*..",
".......*;$$$$$$$$&&&&&#$&&&&&*..",
".......@#+$$$$$$$&&&&$#&&&&&&*..",
"......=#+$$$$$$$$&&&@;%&&&&&&*..",
"......%;-$$$$$$$$&&-;-&&&&&&&&..",
".....=@#@$$$$$$$$&%;@&&&&&&&&&..",
".....*$+@$$$$$$$$%;$&&&&&&&&&&..",
".....&#-+$$$$$$$$#$&&&&&&&&&&&..",
"....=&;&$$$$$$$$$$&&&&&&&&&&&*..",
"....*-#&$$$$$$$$$&&&&&&&&&&&&*..",
"....*-$&$$$$$$$$$&&&&&&&&&&&&*..",
"....&$+&$$$$$$$$$&&&&&&&&&&&&=..",
"...=&$@&$$$$$$$$$&&&&&&&&&&&&=..",
"...=&#-&$$$$$$$$$&&&&&&&&&&&&...",
"...*&#-&$$$$$$$$$&&&&&&&&&&&*...",
"...*&#-&+$$$$$$$$&&&&&&&&&&&=...",
"...*&#-&@$$$$$$$$&&&&&&&&&&&....",
"...*&#-&@$$$$$$$$&&&&&&&&&&*....",
"...&&#@&%$$$$$$$$&&&&&&&&&&.....",
"...&&$+&%$$$$$$$$&&&&&&&&&*.....",
"...&&+$&&+$$$$$$$&&&&&&&&&......",
"...&&-#&&-$$$$$$$&&&&&&&&=......",
"...&&-;&&%$$$$$$$&&&&&&&*.......",
"...&&&;%&&@$$$$$$&&&&&&&........",
"...&&&#-&&%$$$$$$&&&&&&=........",
"...*&&$$&&&-$$$$$&&&&&=.........",
"...*&&-#&&&&+$$$$&&&&*..........",
"...*&&&;%&&&%$$$$&&&*...........",
"...*&&&$$&&&&-$$$&&*............",
"...=&&&%;&&&&&@$$&*.............",
"...=&&&&#+&&&&&+$&=.............",
"....&&&&-;&&&&&%+=..............",
"....*&&&&#$&&&&&%=..............",
"....*&&&&%;%&&&&&-=.............",
"....=&&&&&$#&&&&&@%.............",
".....&&&&&&#+&&&&@@%............",
".....*&&&&&%;-&&&@@@*...........",
".....=&&&&&&@;&&&@@@-=..........",
"......*&&&&&&$#&&@@@@%..........",
"......=&&&&&&&#$&@@@@@=.........",
".......&&&&&&&%;@@@@@@%.........",
".......=&&&&&&&-;$@@@@@=........",
"........*&&&&&&&@>+@@@@%........",
"........=&&&&&&&&#>@@@@@........",
".........*&&&&&&&@;;@@@@*.......",
"..........&&&&&&&@@>#@@@&.......",
"..........=&&&&&&@@$>$@@%.......",
"...........*&&&&&@@@#>@@@.......",
"............*&&&&@@@@;#@@=......",
".............&&&&@@@@+>+@*......",
".............=&&&@@@@@#;@*......",
"..............=&&@@@@@@>$*......",
"...............*&@@@@@@#;&......",
"................*@@@@@@@>%......"};
